<?xml version="1.0" encoding="utf-8"?>
<!-- Generator: Adobe Illustrator 24.0.0, SVG Export Plug-In . SVG Version: 6.00 Build 0)  -->
<svg version="1.1" id="Layer_1" xmlns="http://www.w3.org/2000/svg" xmlns:xlink="http://www.w3.org/1999/xlink" x="0px" y="0px"
	 viewBox="0 0 500 159.1" style="enable-background:new 0 0 500 159.1;" xml:space="preserve">
<style type="text/css">
	.st0{opacity:0.61;fill:#1F2130;}
	.st1{display:none;}
	.st2{display:inline;}
	.st3{fill:#D6856A;}
	.st4{opacity:0.47;fill:#FFFFFF;}
	.st5{opacity:0.37;}
	.st6{fill:#6B3020;}
	.st7{fill:none;stroke:#6B3020;stroke-width:5.0971;stroke-linecap:round;stroke-miterlimit:10;}
	.st8{fill:none;stroke:#6B3020;stroke-width:4.4035;stroke-linecap:round;stroke-miterlimit:10;}
	.st9{fill:none;stroke:#6B3020;stroke-width:3.9545;stroke-linecap:round;stroke-miterlimit:10;}
	.st10{opacity:0.43;fill:none;stroke:#6B3020;stroke-width:2.0809;stroke-linecap:round;stroke-miterlimit:10;}
	.st11{opacity:0.43;fill:#6B3020;}
	.st12{display:inline;opacity:0.46;}
	.st13{fill:#F0D98B;}
</style>
<polygon class="st0" points="64.6,10.8 4.5,159.1 496,158.3 292.6,1.3 "/>
<g class="st1">
	<g class="st2">
		
			<ellipse transform="matrix(0.9991 -4.235781e-02 4.235781e-02 0.9991 6.2428 12.6416)" class="st3" cx="301.4" cy="-141" rx="164.4" ry="154.2"/>
		
			<ellipse transform="matrix(0.9685 -0.2491 0.2491 0.9685 29.7438 32.3384)" class="st3" cx="142.6" cy="-101.3" rx="120.1" ry="112.6"/>
		<path class="st3" d="M260.1-76.5c0,0-32.5,52.9-114,63.9C64.6-1.6,180.9,62,263.1,9.9C263.1,9.9,342-112.1,260.1-76.5z"/>
		<path class="st4" d="M165.5,7.4c-0.1-6.1-0.8-15.8-0.7-23.4c-5.9,1.4-12.2,2.6-18.7,3.4c-51,6.9-24.5,34.4,22.7,41.2
			C166.7,22,165.6,14.9,165.5,7.4z"/>
		<path class="st3" d="M103.3-20.1c-26.3,7-54.6-16.3-74-49.8c-0.2-0.2-0.3-0.3-0.3-0.3C0.8,7.6,97.8,32.2,121.2,27.7
			c23.4-4.5,1.9-45.1,1.9-45.1C116.5-17.2,109.8-18.3,103.3-20.1z"/>
		<path class="st4" d="M123.3-14.4c-8,0.2-16.1-1.2-24-3.6c0,15.1,0.2,29.9-1.4,44.5c9.8,1.8,18.3,2.1,23.3,1.2
			C144.6,23.4,123.3-14.4,123.3-14.4z"/>
		<path class="st3" d="M355.2-167.3c0,0-95.1,40.9-22.5,148.6c0,0-71.4,3-73.1,15.8c-1.8,12.8-4.5,30.2,16.3,30.5
			c20.8,0.3,143.9-6.1,154.8-20.4c10.9-14.3,70.9-149.5,10.1-225.3C440.7-218.2,349.4-195.9,355.2-167.3z"/>
		<path class="st4" d="M284.6-9.7c0,0,14.3,10.9,7.3,36.6c0,0-34.2,9.5-34-12.4C258.2-7.4,280-9.5,284.6-9.7z"/>
		<g class="st5">
			<path class="st6" d="M259.4,21.5c-0.6,0-1.2-0.4-1.3-1c-0.1-0.5-2.7-12.3,3.4-21.1c3.4-4.9,8.8-7.9,16-8.9l38.3-8.3
				c-4.2-8.9-24.6-56.3-5.5-97.2c13.3-28.5,42.6-47.9,87-57.6c0.7-0.2,1.4,0.3,1.5,1c0.2,0.7-0.3,1.4-1,1.5
				c-43.6,9.5-72.2,28.4-85.2,56.2c-20.6,44.1,5.9,96,6.1,96.5l0.8,1.5L278-7c-6.6,0.9-11.4,3.6-14.4,7.9c-5.5,7.9-3.1,19-3.1,19.1
				c0.2,0.7-0.3,1.4-1,1.5C259.5,21.4,259.5,21.5,259.4,21.5z"/>
		</g>
		<path class="st3" d="M31.4-132.8c0,0-35.1-66.6-17-74.2c18.1-7.7,57.6,26.4,57.6,26.4S43.4-122.9,31.4-132.8z"/>
		<path class="st3" d="M145.7-195.7c0,0-12.2-64.9,7.8-70.8c20-5.9,51.5,57.1,51.5,57.1S150-182.5,145.7-195.7z"/>
		<path class="st6" d="M159.8-96.7c0,0,22.4-15.9,35.3-9.6c0,0,1.9,17.2-5.9,24.5C181.5-74.6,161.7-79.5,159.8-96.7z"/>
		<path class="st7" d="M119.9-58.1c0,0,57,12.6,64.9-20.1c0,0,39.9,15.6,52.1-23"/>
		<path class="st8" d="M134.2-101.9c0,0-5.7,13.5-35.2,12.8"/>
		<path class="st9" d="M223.7-140.3c0,0-4.5,13.4-28.3,12.5"/>
		<path class="st10" d="M45.4-48c0,0,40.7,36.9,100,35.1c0,0,91.8-0.6,109.1-54.4c0,0,38.9-88.2-52.5-151.2c0,0-12.7-28.3-16.2-29.3
			"/>
		<path class="st11" d="M228.2-278.4c0,0,36.4,15.8,47.3,55.7c0,0,7.5-40.7-11-69.9L228.2-278.4z"/>
		<path class="st11" d="M299-296.4c0,0,21.1,34.9,20.1,64.9c0,0,34.4-62.1,16.9-63C299-296.4,299.9-301,299-296.4z"/>
		<path class="st11" d="M371.1-282.1c0,0-4.1,39.4-11.7,51.2c0,0,34.3-7.2,42.4-34.1C401.8-265,376.8-282.4,371.1-282.1z"/>
		<path class="st4" d="M39.8-151.6c0,0-24.8-41.6-14.5-42.1c10.4-0.4,35.3,15.8,35.3,15.8S39.6-156.2,39.8-151.6z"/>
		<path class="st4" d="M160.6-214.4c0,0-9.9-42.3-1.7-40.3c8.2,2,25.8,37,25.8,37L160.6-214.4z"/>
	</g>
	<g class="st12">
		<path class="st13" d="M36.8-59.2c0,0-19.1-43-0.7-71.5c0,0-31.5-62.1-22.9-77.5c-15.8,6.7,8.9,58.2,15.4,71.2
			c-7.5,20.2-9.2,42.4-3.6,64.4c0.4,1.7,0.9,3.4,1.5,5.1C14-27.7,34.7-2.4,60.4,12C46.7-2.3,24.9-30.9,36.8-59.2z"/>
		<path class="st13" d="M149.5-204.7c0,0-0.4-64.6,7.8-61.5c8.2,3.1,34.7,29.7,34.7,29.7s56.6-52,120.2-47.8
			c62.7,4.2,134.1,55.1,149.8,117.8c0.4-0.1,0.7-0.1,1.1-0.2c-0.8-4.1-1.7-8.2-2.9-12.2c-8.9-35.1-30.6-65.3-60-86.3
			c0.1-0.4,0.3-0.7,0.4-1.1c0,0-25-17.4-30.7-17.2c0,0,0,0.4-0.1,1.1c-9.7-4.2-20-7.6-30.6-9.9c-0.7-2.1-2.1-3.4-4.4-3.5
			c-37-1.9-36-6.5-37-1.9c0,0,0.3,0.5,0.7,1.2c-1.6,0-3.2,0-4.8,0.1c-10.1,0.4-20,1.8-29.6,3.8c-0.3-0.5-0.5-0.9-0.8-1.4l-11.2,4.4
			c-27.6,8-51.9,22.6-71.2,41.8c-9.4-12.4-20.1-22.6-28.7-20c-13,3.8-12.4,32.4-10.4,52.1c-9.4,0.3-18.9,1.5-28.5,4
			c-18.6,4.8-35.1,13.4-48.8,24.7C64.6-186.8,134-214.4,149.5-204.7z"/>
		<path class="st13" d="M64.6-186.8c-41-35.9-51.3-21.3-51.3-21.3C26.9-213.9,52.7-196,64.6-186.8z"/>
	</g>
	<g class="st2">
		<g>
			<path class="st3" d="M237.2,61.9c31.6,2.7,63.4,3.1,95.1,1.3c15.8-0.9,31.7-2.4,47.4-4.4c15.3-2,30.9-3.9,45.8-8
				c14.8-4.1,28.8-10.8,40.1-21.4c10.7-10.1,18.1-23.1,23.1-36.8c5.3-14.3,7.3-29.9,7.8-45.1c0.5-14.8-0.2-29.7-1.2-44.5
				c-1.7-25.9-6.5-55-28.1-72.2c-2.9-2.3-6-4.6-8.9-6.9c0.9,0.7,1.7,1.3,2.6,2c-3.2-2.5-6.4-5.1-8.9-8.3c0.7,0.9,1.3,1.7,2,2.6
				c-0.9-1.2-1.7-2.5-2.4-3.9c0.4,1,0.9,2,1.3,3c-0.5-1.1-0.8-2.3-1-3.4c0.2,1.1,0.3,2.3,0.5,3.4c-0.1-1.1-0.2-2.3,0-3.4
				c-0.2,1.1-0.3,2.3-0.5,3.4c0-0.1,0-0.2,0-0.3c0.5-1.7,0.6-3.4,0.2-5.1c-0.1-1.7-0.6-3.3-1.5-4.7c-1.5-2.6-4.6-5.2-7.6-5.9
				c-3.3-0.7-6.9-0.6-9.8,1.3c-2.6,1.7-5.4,4.4-5.9,7.6c-0.3,2.4-0.7,4.6-0.5,7c0.2,2.3,0.5,4.4,1.3,6.6c1.7,4.4,3.9,7.9,7.1,11.5
				c4.4,4.9,10.1,8.6,15.3,12.6c-0.9-0.7-1.7-1.3-2.6-2c3.8,2.9,7.2,6.1,10.1,9.9c-0.7-0.9-1.3-1.7-2-2.6c3.1,4.1,5.6,8.5,7.6,13.2
				c-0.4-1-0.9-2-1.3-3c3.5,8.3,5.4,17.2,6.6,26.1c-0.2-1.1-0.3-2.3-0.5-3.4c1.1,8.5,1.6,17,2,25.6c0.5,10.8,1,21.6,0.7,32.4
				c-0.2,6.1-0.6,12.2-1.4,18.3c0.2-1.1,0.3-2.3,0.5-3.4c-1.4,10.1-3.8,19.9-7.7,29.3c0.4-1,0.9-2,1.3-3
				c-2.8,6.6-6.4,12.9-10.8,18.7c0.7-0.9,1.3-1.7,2-2.6c-3.5,4.5-7.5,8.6-12.1,12.2c0.9-0.7,1.7-1.3,2.6-2c-5.1,3.9-10.7,7-16.6,9.5
				c1-0.4,2-0.9,3-1.3c-16.5,6.9-34.6,9.2-52.1,11.6c1.1-0.2,2.3-0.3,3.4-0.5c-18.8,2.5-37.7,4.3-56.7,5.2c-19,0.9-38.1,1-57.2,0.4
				c-10.7-0.4-21.4-1-32.1-1.9c-3.1-0.3-6.9,1.6-9,3.7c-2.2,2.2-3.9,5.8-3.7,9c0.1,3.3,1.2,6.7,3.7,9c0.9,0.7,1.7,1.3,2.6,2
				C232.8,61.3,234.9,61.9,237.2,61.9L237.2,61.9z"/>
		</g>
	</g>
</g>
</svg>
