<?xml version="1.0" encoding="utf-8"?>
<!-- Generator: Adobe Illustrator 24.0.0, SVG Export Plug-In . SVG Version: 6.00 Build 0)  -->
<svg version="1.1" xmlns="http://www.w3.org/2000/svg" xmlns:xlink="http://www.w3.org/1999/xlink" x="0px" y="0px"
	 viewBox="0 0 714.2 500" style="enable-background:new 0 0 714.2 500;" xml:space="preserve">
<style type="text/css">
	.st0{opacity:0.91;fill:#252633;}
	.st1{opacity:9.000000e-02;fill:#E9D88E;}
	.st2{fill:#252633;}
	.st3{fill:#38394D;}
	.st4{display:none;fill:#252633;}
	.st5{display:none;fill:#FFFFFF;}
	.st6{opacity:0.18;fill:#FFFFFF;}
	.st7{opacity:0.53;fill:#252633;}
	.st8{fill:#C2846B;}
	.st9{opacity:0.6;fill:#C2846B;}
	.st10{opacity:0.42;fill:#5F3326;}
	.st11{fill:#5F3326;}
	.st12{fill:#E9D88E;}
	.st13{display:none;}
	.st14{display:inline;fill:#D98C3A;}
	.st15{display:inline;fill:#F7E24B;}
	.st16{display:inline;fill:#FFFFFF;}
	.st17{display:none;fill:#5F3326;}
	.st18{opacity:0.7;}
	.st19{opacity:0.53;fill:#E9D88E;}
	.st20{opacity:0.3;fill:#FFFFFF;}
	.st21{fill:#D44356;}
	.st22{fill:#D98C3A;}
	.st23{fill:#F7E24B;}
	.st24{opacity:0.1;fill:#FFFFFF;}
	.st25{fill:#608530;}
	.st26{fill:#4D6D24;}
	.st27{fill:none;stroke:#E9D88E;stroke-width:3;stroke-linecap:round;stroke-miterlimit:10;stroke-dasharray:0,7;}
	.st28{opacity:0.59;fill:#E9D88E;}
	.st29{opacity:0.99;fill:#FFFFFF;}
	.st30{opacity:0.6;fill:#FFFFFF;}
	.st31{opacity:0.66;}
	.st32{opacity:0.37;fill:#252633;}
	.st33{fill:#FFFFFF;}
	.st34{clip-path:url(#SVGID_2_);fill:none;stroke:#FFFFFF;stroke-width:0.8975;stroke-miterlimit:10;}
	.st35{opacity:0.48;fill:#E9D88E;}
	.st36{opacity:0.53;fill:#38394D;}
	.st37{opacity:0.5;fill:#38394D;}
	.st38{opacity:0.29;fill:#252633;}
	.st39{opacity:0.42;fill:#E9D88E;}
	.st40{opacity:0.61;}
	.st41{display:none;opacity:0.61;fill:#252633;}
	.st42{display:inline;}
	.st43{opacity:0.47;fill:#FFFFFF;}
	.st44{opacity:0.37;}
	.st45{fill:none;stroke:#5F3326;stroke-width:0.7948;stroke-linecap:round;stroke-miterlimit:10;}
	.st46{fill:none;stroke:#5F3326;stroke-width:0.6867;stroke-linecap:round;stroke-miterlimit:10;}
	.st47{fill:none;stroke:#5F3326;stroke-width:0.6167;stroke-linecap:round;stroke-miterlimit:10;}
	.st48{opacity:0.43;fill:none;stroke:#5F3326;stroke-width:0.3245;stroke-linecap:round;stroke-miterlimit:10;}
	.st49{opacity:0.43;fill:#5F3326;}
	.st50{display:inline;opacity:0.46;}
</style>
<g id="BACKGROUND">
	<rect class="st0" width="714.2" height="373.2"/>
	<g>
		<rect x="120.7" class="st1" width="4.7" height="354.9"/>
		<rect x="140.1" class="st1" width="4.7" height="354.9"/>
		<rect x="159.4" class="st1" width="4.7" height="354.9"/>
		<rect x="178.8" class="st1" width="4.7" height="354.9"/>
		<rect x="198.1" class="st1" width="4.7" height="354.9"/>
		<rect x="217.5" class="st1" width="4.7" height="354.9"/>
		<rect x="236.8" class="st1" width="4.7" height="354.9"/>
		<rect x="256.1" class="st1" width="4.7" height="354.9"/>
		<rect x="275.5" class="st1" width="4.7" height="354.9"/>
		<rect x="294.8" class="st1" width="4.7" height="354.9"/>
		<rect x="314.2" class="st1" width="4.7" height="354.9"/>
		<rect x="333.5" class="st1" width="4.7" height="354.9"/>
		<rect x="352.9" class="st1" width="4.7" height="354.9"/>
		<rect x="372.2" class="st1" width="4.7" height="354.9"/>
		<rect x="391.6" class="st1" width="4.7" height="354.9"/>
		<rect x="410.9" class="st1" width="4.7" height="354.9"/>
		<rect x="430.3" class="st1" width="4.7" height="354.9"/>
		<rect x="449.6" class="st1" width="4.7" height="354.9"/>
		<rect x="469" class="st1" width="4.7" height="354.9"/>
		<rect x="488.3" class="st1" width="4.7" height="354.9"/>
		<rect x="507.7" class="st1" width="4.7" height="354.9"/>
		<rect x="527" class="st1" width="4.7" height="354.9"/>
		<rect x="546.4" class="st1" width="4.7" height="354.9"/>
		<rect x="565.7" class="st1" width="4.7" height="354.9"/>
		<rect x="585.1" class="st1" width="4.7" height="354.9"/>
	</g>
	<g>
		<rect x="602.4" y="-0.3" class="st1" width="4.7" height="354.9"/>
		<rect x="621.8" y="-0.3" class="st1" width="4.7" height="354.9"/>
		<rect x="641.1" y="-0.3" class="st1" width="4.7" height="354.9"/>
		<rect x="660.5" y="-0.3" class="st1" width="4.7" height="354.9"/>
		<rect x="679.8" y="-0.3" class="st1" width="4.7" height="354.9"/>
		<rect x="699.2" y="-0.3" class="st1" width="4.7" height="354.9"/>
		<rect x="718.5" y="-0.3" class="st1" width="4.7" height="354.9"/>
		<rect x="737.9" y="-0.3" class="st1" width="4.7" height="354.9"/>
		<rect x="757.2" y="-0.3" class="st1" width="4.7" height="354.9"/>
		<rect x="776.6" y="-0.3" class="st1" width="4.7" height="354.9"/>
		<rect x="795.9" y="-0.3" class="st1" width="4.7" height="354.9"/>
		<rect x="815.3" y="-0.3" class="st1" width="4.7" height="354.9"/>
		<rect x="834.6" y="-0.3" class="st1" width="4.7" height="354.9"/>
		<rect x="854" y="-0.3" class="st1" width="4.7" height="354.9"/>
		<rect x="873.3" y="-0.3" class="st1" width="4.7" height="354.9"/>
		<rect x="892.7" y="-0.3" class="st1" width="4.7" height="354.9"/>
		<rect x="912" y="-0.3" class="st1" width="4.7" height="354.9"/>
		<rect x="931.3" y="-0.3" class="st1" width="4.7" height="354.9"/>
		<rect x="950.7" y="-0.3" class="st1" width="4.7" height="354.9"/>
		<rect x="970" y="-0.3" class="st1" width="4.7" height="354.9"/>
		<rect x="989.4" y="-0.3" class="st1" width="4.7" height="354.9"/>
		<rect x="1008.7" y="-0.3" class="st1" width="4.7" height="354.9"/>
		<rect x="1028.1" y="-0.3" class="st1" width="4.7" height="354.9"/>
		<rect x="1047.4" y="-0.3" class="st1" width="4.7" height="354.9"/>
		<rect x="1066.8" y="-0.3" class="st1" width="4.7" height="354.9"/>
	</g>
	<g>
		<rect x="-363.5" y="0.4" class="st1" width="4.7" height="354.9"/>
		<rect x="-344.2" y="0.4" class="st1" width="4.7" height="354.9"/>
		<rect x="-324.8" y="0.4" class="st1" width="4.7" height="354.9"/>
		<rect x="-305.5" y="0.4" class="st1" width="4.7" height="354.9"/>
		<rect x="-286.1" y="0.4" class="st1" width="4.7" height="354.9"/>
		<rect x="-266.8" y="0.4" class="st1" width="4.7" height="354.9"/>
		<rect x="-247.4" y="0.4" class="st1" width="4.7" height="354.9"/>
		<rect x="-228.1" y="0.4" class="st1" width="4.7" height="354.9"/>
		<rect x="-208.7" y="0.4" class="st1" width="4.7" height="354.9"/>
		<rect x="-189.4" y="0.4" class="st1" width="4.7" height="354.9"/>
		<rect x="-170.1" y="0.4" class="st1" width="4.7" height="354.9"/>
		<rect x="-150.7" y="0.4" class="st1" width="4.7" height="354.9"/>
		<rect x="-131.4" y="0.4" class="st1" width="4.7" height="354.9"/>
		<rect x="-112" y="0.4" class="st1" width="4.7" height="354.9"/>
		<rect x="-92.7" y="0.4" class="st1" width="4.7" height="354.9"/>
		<rect x="-73.3" y="0.4" class="st1" width="4.7" height="354.9"/>
		<rect x="-54" y="0.4" class="st1" width="4.7" height="354.9"/>
		<rect x="-34.6" y="0.4" class="st1" width="4.7" height="354.9"/>
		<rect x="-15.3" y="0.4" class="st1" width="4.7" height="354.9"/>
		<rect x="4.1" y="0.4" class="st1" width="4.7" height="354.9"/>
		<rect x="23.4" y="0.4" class="st1" width="4.7" height="354.9"/>
		<rect x="42.8" y="0.4" class="st1" width="4.7" height="354.9"/>
		<rect x="62.1" y="0.4" class="st1" width="4.7" height="354.9"/>
		<rect x="81.5" y="0.4" class="st1" width="4.7" height="354.9"/>
		<rect x="100.8" y="0.4" class="st1" width="4.7" height="354.9"/>
	</g>
</g>
<g id="OBJECTS">
	<g>
		<rect x="482.7" y="37" class="st2" width="97" height="279.9"/>
		<rect x="490.5" y="47.2" class="st3" width="81.4" height="261.3"/>
		<rect x="486" y="117.2" class="st4" width="89.2" height="7.1"/>
		<path class="st5" d="M505.4,61.3c0,1.2-1,2.3-2.3,2.3c-1.2,0-2.3-1-2.3-2.3s1-2.3,2.3-2.3C504.4,59,505.4,60,505.4,61.3z"/>
		<circle class="st5" cx="552.6" cy="172.8" r="2.3"/>
		<path class="st5" d="M525.1,199.9c0,1.2-1,2.3-2.3,2.3c-1.2,0-2.3-1-2.3-2.3c0-1.2,1-2.3,2.3-2.3
			C524.1,197.6,525.1,198.6,525.1,199.9z"/>
		<path class="st5" d="M560.3,231.6c0,1.2-1,2.3-2.3,2.3c-1.2,0-2.3-1-2.3-2.3c0-1.2,1-2.3,2.3-2.3
			C559.3,229.3,560.3,230.3,560.3,231.6z"/>
		<path class="st5" d="M531.6,289.1c0,1.2-1,2.3-2.3,2.3c-1.2,0-2.3-1-2.3-2.3c0-1.2,1-2.3,2.3-2.3
			C530.6,286.8,531.6,287.8,531.6,289.1z"/>
		<path class="st5" d="M510.3,271.3c0,1.2-1,2.3-2.3,2.3c-1.2,0-2.3-1-2.3-2.3s1-2.3,2.3-2.3C509.3,269,510.3,270,510.3,271.3z"/>
		<path class="st5" d="M507.7,182.4c0,1.2-1,2.3-2.3,2.3s-2.3-1-2.3-2.3c0-1.2,1-2.3,2.3-2.3S507.7,181.2,507.7,182.4z"/>
		<path class="st5" d="M550.3,106.2c0,1.2-1,2.3-2.3,2.3c-1.2,0-2.3-1-2.3-2.3c0-1.2,1-2.3,2.3-2.3
			C549.3,103.9,550.3,104.9,550.3,106.2z"/>
		<path class="st5" d="M562.3,140.4c0,1.2-1,2.3-2.3,2.3c-1.2,0-2.3-1-2.3-2.3c0-1.2,1-2.3,2.3-2.3
			C561.3,138.2,562.3,139.2,562.3,140.4z"/>
		<path class="st5" d="M554.8,67.9c-0.1,1.2-1.2,2.2-2.4,2.1c-1.2-0.1-2.2-1.2-2.1-2.4c0.1-1.2,1.2-2.2,2.4-2.1
			C554,65.6,555,66.7,554.8,67.9z"/>
		<circle class="st5" cx="527.4" cy="83.6" r="1.3"/>
		<path class="st5" d="M528.7,152.1c0,0.7-0.6,1.3-1.3,1.3c-0.7,0-1.3-0.6-1.3-1.3c0-0.7,0.6-1.3,1.3-1.3
			C528.1,150.8,528.7,151.4,528.7,152.1z"/>
		<path class="st5" d="M554.5,198.6c0,0.7-0.6,1.3-1.3,1.3s-1.3-0.6-1.3-1.3c0-0.7,0.6-1.3,1.3-1.3S554.5,197.9,554.5,198.6z"/>
		<path class="st5" d="M507.4,231.6c0,0.7-0.6,1.3-1.3,1.3c-0.7,0-1.3-0.6-1.3-1.3c0-0.7,0.6-1.3,1.3-1.3
			C506.8,230.3,507.4,230.8,507.4,231.6z"/>
		<path class="st5" d="M531.3,245.8c0,0.7-0.6,1.3-1.3,1.3c-0.7,0-1.3-0.6-1.3-1.3s0.6-1.3,1.3-1.3
			C530.7,244.5,531.3,245.1,531.3,245.8z"/>
		<path class="st5" d="M548.1,269c0,0.7-0.6,1.3-1.3,1.3c-0.7,0-1.3-0.6-1.3-1.3c0-0.7,0.6-1.3,1.3-1.3
			C547.5,267.7,548.1,268.3,548.1,269z"/>
		<circle class="st5" cx="500.3" cy="294.9" r="1.3"/>
		<path class="st5" d="M559.7,294.2c0,0.7-0.6,1.3-1.3,1.3c-0.7,0-1.3-0.6-1.3-1.3c0-0.7,0.6-1.3,1.3-1.3
			C559.1,292.9,559.7,293.5,559.7,294.2z"/>
		<path class="st5" d="M502.8,143c0,0.7-0.6,1.3-1.3,1.3c-0.7,0-1.3-0.6-1.3-1.3c0-0.7,0.6-1.3,1.3-1.3
			C502.3,141.7,502.8,142.3,502.8,143z"/>
		<path class="st5" d="M504.1,97.8c0,0.7-0.6,1.3-1.3,1.3c-0.7,0-1.3-0.6-1.3-1.3c0-0.7,0.6-1.3,1.3-1.3
			C503.6,96.5,504.1,97.1,504.1,97.8z"/>
		<polygon class="st6" points="491.2,219.9 572.6,171.5 572.6,181.2 491.2,229.6 		"/>
		<polygon class="st6" points="490.6,241.9 572.6,196 572.6,201.8 490.6,249.6 		"/>
		<polygon class="st6" points="490.6,92 572.6,46.1 572.6,55.2 572.6,52.6 489.9,98.4 		"/>
	</g>
	<polygon class="st7" points="298.7,0.2 121,355 283.8,353 299.3,353 	"/>
	<rect y="354.7" class="st2" width="715.4" height="145.3"/>
	<g>
		<g>
			<rect x="299.2" y="1" class="st8" width="112.4" height="227.1"/>
			<rect x="299.2" y="1" class="st9" width="112.4" height="227.1"/>
			<g>
				<rect x="396.7" y="169.2" class="st10" width="14.9" height="16.3"/>
				<rect x="396.7" y="135.5" class="st10" width="14.9" height="16.3"/>
				<rect x="396.7" y="101.7" class="st10" width="14.9" height="16.3"/>
				<rect x="396.7" y="67.9" class="st10" width="14.9" height="16.3"/>
				<rect x="396.7" y="34.2" class="st10" width="14.9" height="16.3"/>
				<rect x="396.7" y="0.4" class="st10" width="14.9" height="16.3"/>
			</g>
			<g>
				<rect x="298.8" y="169.2" class="st10" width="14.9" height="16.3"/>
				<rect x="298.8" y="135.5" class="st10" width="14.9" height="16.3"/>
				<rect x="298.8" y="101.7" class="st10" width="14.9" height="16.3"/>
				<rect x="298.8" y="67.9" class="st10" width="14.9" height="16.3"/>
				<rect x="298.8" y="34.2" class="st10" width="14.9" height="16.3"/>
				<rect x="298.8" y="0.4" class="st10" width="14.9" height="16.3"/>
			</g>
		</g>
		<g>
			<rect x="248.5" y="196.9" class="st8" width="218.1" height="173.1"/>
			<rect x="248.5" y="196.9" class="st9" width="218.1" height="22.7"/>
			<g>
				<rect x="248.6" y="346.3" class="st10" width="13" height="23.4"/>
				<rect x="277.8" y="346.3" class="st10" width="13" height="23.4"/>
				<rect x="307" y="346.3" class="st10" width="13" height="23.4"/>
				<rect x="336.1" y="346.3" class="st10" width="13" height="23.4"/>
				<rect x="365.3" y="346.3" class="st10" width="13" height="23.4"/>
				<rect x="394.5" y="346.3" class="st10" width="13" height="23.4"/>
				<rect x="423.6" y="346.3" class="st10" width="13" height="23.4"/>
				<rect x="452.8" y="346.3" class="st10" width="13" height="23.4"/>
			</g>
			<rect x="248.7" y="215.5" class="st10" width="14.9" height="14.9"/>
			<rect x="248.7" y="242.1" class="st10" width="14.9" height="14.9"/>
			<rect x="248.7" y="268.7" class="st10" width="14.9" height="14.9"/>
			<rect x="248.7" y="295.3" class="st10" width="14.9" height="14.9"/>
			<rect x="248.7" y="321.9" class="st10" width="14.9" height="14.9"/>
			<rect x="451.9" y="215.5" class="st10" width="14.9" height="14.9"/>
			<rect x="451.9" y="242.1" class="st10" width="14.9" height="14.9"/>
			<rect x="451.9" y="268.7" class="st10" width="14.9" height="14.9"/>
			<rect x="451.9" y="295.3" class="st10" width="14.9" height="14.9"/>
			<rect x="451.9" y="321.9" class="st10" width="14.9" height="14.9"/>
			<path class="st11" d="M467.7,207.5H246.3c-3.3,0-6.1-2.7-6.1-6.1v-0.8c0-3.3,2.7-6.1,6.1-6.1h221.4c3.3,0,6.1,2.7,6.1,6.1v0.8
				C473.8,204.8,471.1,207.5,467.7,207.5z"/>
			<rect x="248" y="345.6" class="st12" width="217.4" height="4.4"/>
		</g>
	</g>
	<g>
		<path class="st11" d="M414.5,345.9v-71.7c0-28.5-26.3-51.9-58.3-51.9c-32.1,0-58.3,23.3-58.3,51.9v71.7H414.5z"/>
		<path class="st12" d="M406.6,338.6v-63.2c0-25.1-22.7-45.7-50.4-45.7c-27.7,0-50.4,20.6-50.4,45.7v63.2H406.6z"/>
		<g class="st13">
			<path class="st14" d="M354.9,338.2c0,0-38.1,3.2-38.1-38.1c0,0,14.9,0.6,20.7,9.7c5.8,9,0-2.6,0-2.6s-10.3-24.6,9.7-40.1
				c0,0,5.8-5.8,6.5-11c0.6-5.2,30.4,13.6,22,51.7c0,0,9.7-4.5,11-9C387.8,294.2,405.9,337.5,354.9,338.2z"/>
			<path class="st15" d="M354.6,338c0,0-30.2,2.6-30.2-30.2c0,0,11.8,0.5,16.4,7.7c4.6,7.2,0-2,0-2s-8.2-19.5,7.7-31.8
				c0,0,4.6-4.6,5.1-8.7c0.5-4.1,24.1,10.8,17.4,41c0,0,7.7-3.6,8.7-7.2C380.8,303.2,395.1,337.5,354.6,338z"/>
			<path class="st16" d="M355.8,338.6c0,0-14.1,1.7-14.1-19.8c0,0,5.5,0.3,7.7,5c2.2,4.7,0-1.3,0-1.3s-3.8-12.8,3.6-20.8
				c0,0,2.2-3,2.4-5.7c0.2-2.7,11.3,7.1,8.1,26.9c0,0,3.6-2.4,4.1-4.7C368,315.8,374.7,338.3,355.8,338.6z"/>
			<path class="st14" d="M331.6,299.4c0,0-6.5-10.3,0-20c6.5-9.7,11.6-14.2,11.6-17.4C343.2,258.7,314.8,280.7,331.6,299.4z"/>
			<path class="st14" d="M380.7,300c0,0,1.9-14.2-0.6-23.3C380.1,276.8,387.8,286.5,380.7,300z"/>
			<path class="st14" d="M379.4,262.2c0,1.2-1,2.3-2.3,2.3c-1.2,0-2.3-1-2.3-2.3s1-2.3,2.3-2.3C378.4,260,379.4,261,379.4,262.2z"/>
			<path class="st14" d="M324.5,267.1c0,1.2-1,2.3-2.3,2.3c-1.2,0-2.3-1-2.3-2.3c0-1.2,1-2.3,2.3-2.3
				C323.5,264.8,324.5,265.8,324.5,267.1z"/>
			<path class="st14" d="M394.6,274.2c0,1.2-1,2.3-2.3,2.3c-1.2,0-2.3-1-2.3-2.3c0-1.2,1-2.3,2.3-2.3
				C393.6,271.9,394.6,273,394.6,274.2z"/>
			<path class="st14" d="M352,243.5c0,1.2-1,2.3-2.3,2.3c-1.2,0-2.3-1-2.3-2.3c0-1.2,1-2.3,2.3-2.3C350.9,241.2,352,242.3,352,243.5
				z"/>
		</g>
		<polygon class="st17" points="412.3,307.7 299.8,307.7 299.8,312.2 317.1,312.2 317.1,345.1 322,345.1 322,312.2 342.5,312.2 
			342.5,345.1 347.4,345.1 347.4,312.2 368,312.2 368,345.1 372.9,345.1 372.9,312.2 393.4,312.2 393.4,345.1 398.3,345.1 
			398.3,312.2 412.3,312.2 		"/>
	</g>
	<g>
		<g class="st18">
			<g>
				
					<rect x="320.2" y="79.5" transform="matrix(-1.836970e-16 1 -1 -1.836970e-16 430.2226 -246.2226)" class="st11" width="36" height="25.1"/>
				
					<rect x="323.4" y="81.7" transform="matrix(-1.836970e-16 1 -1 -1.836970e-16 430.2226 -246.2226)" class="st19" width="29.7" height="20.7"/>
			</g>
			<polygon class="st20" points="331.3,77.2 345.7,107 344.1,107.3 329.9,77.2 			"/>
			<polygon class="st20" points="334.3,77.2 348.6,106.9 347.3,107.3 333.2,77.2 			"/>
		</g>
		<g class="st18">
			<g>
				
					<rect x="355.8" y="119.8" transform="matrix(-1.836970e-16 1 -1 -1.836970e-16 506.1114 -241.4448)" class="st11" width="36" height="25.1"/>
				
					<rect x="358.9" y="122" transform="matrix(-1.836970e-16 1 -1 -1.836970e-16 506.1114 -241.4448)" class="st19" width="29.7" height="20.7"/>
			</g>
			<polygon class="st20" points="366.9,117.5 381.3,147.3 379.7,147.7 365.4,117.5 			"/>
			<polygon class="st20" points="369.8,117.5 384.1,147.2 382.9,147.7 368.8,117.5 			"/>
		</g>
	</g>
	<g>
		<g>
			<polygon class="st21" points="326.8,193.8 318.4,193.8 318.2,151.4 326.8,145.8 			"/>
			<path class="st22" d="M317.6,151.9c-0.4,0.4-0.7,10.1,0.3,9.8s1.3-7.6,2.1-5.9c0.7,1.7,0.6,4.7,1.3,4.2c0.7-0.5,0.7-8.4,1.8-7.9
				c1,0.5-0.3,5.4,0.9,4.4c1.2-1,1.5-9.1,2.2-8.1c0.7,1,0.1,6.6,0.9,6.1c0.7-0.5,0.1-10.3,0.1-10.3S327.5,141.4,317.6,151.9z"/>
			<path class="st23" d="M321.1,147.8c0,0-3.4-0.4-0.9-8.8l0.3-2.6C320.5,136.5,327.6,143.9,321.1,147.8z"/>
			<circle class="st24" cx="321.3" cy="142.4" r="11.8"/>
			
				<ellipse transform="matrix(0.2289 -0.9734 0.9734 0.2289 109.1372 422.4962)" class="st24" cx="321.3" cy="142.4" rx="8.2" ry="8.2"/>
		</g>
		<g>
			<polygon class="st21" points="346.7,193.2 338.3,193.2 338.5,164.7 346.7,157.6 			"/>
			<path class="st22" d="M337.5,163.7c-0.4,0.4-0.7,10.1,0.3,9.8c1-0.2,1.3-7.6,2.1-5.9c0.7,1.7,0.6,4.7,1.3,4.2
				c0.7-0.5,0.7-8.4,1.8-7.9c1,0.5-0.3,5.4,0.9,4.4c1.2-1,1.5-9.1,2.2-8.1c0.7,1,0.1,6.6,0.9,6.1c0.7-0.5,0.1-10.3,0.1-10.3
				S347.4,153.2,337.5,163.7z"/>
			<path class="st23" d="M341,159.6c0,0-3.4-0.4-0.9-8.8l0.3-2.6C340.4,148.3,347.5,155.7,341,159.6z"/>
			<circle class="st24" cx="341.2" cy="154.2" r="11.8"/>
			
				<ellipse transform="matrix(0.899 -0.4379 0.4379 0.899 -33.0528 164.9589)" class="st24" cx="341.2" cy="154.2" rx="8.2" ry="8.2"/>
		</g>
	</g>
	<g>
		<g>
			<path class="st25" d="M260.1,196.8c0,0-0.6-16.3,6.3-13.7S260.1,196.8,260.1,196.8z"/>
			<path class="st25" d="M261.4,197c0,0-16.3-1.5-12.7-8C252.2,182.5,261.4,197,261.4,197z"/>
			<path class="st26" d="M259.6,196.9c0,0,10-12.9,13.6-6.5C276.8,196.9,259.6,196.9,259.6,196.9z"/>
			<path class="st26" d="M260.8,196.9c0,0-10.7-12.3-3.7-14.6C264.1,180,260.8,196.9,260.8,196.9z"/>
		</g>
		<g>
			<path class="st25" d="M277.7,196.8c0,0-0.6-16.3,6.3-13.7C290.9,185.8,277.7,196.8,277.7,196.8z"/>
			<path class="st25" d="M279,197c0,0-16.3-1.5-12.7-8C269.8,182.5,279,197,279,197z"/>
			<path class="st26" d="M277.2,196.9c0,0,10-12.9,13.6-6.5C294.3,196.9,277.2,196.9,277.2,196.9z"/>
			<path class="st26" d="M278.4,196.9c0,0-10.7-12.3-3.7-14.6C281.7,180,278.4,196.9,278.4,196.9z"/>
		</g>
		<g>
			<path class="st25" d="M269.7,194.2c0,0-2.6,16.1-8.8,12.2C254.7,202.5,269.7,194.2,269.7,194.2z"/>
			<path class="st25" d="M268.5,193.8c0,0,15.7,4.6,11,10.3C274.7,209.7,268.5,193.8,268.5,193.8z"/>
			<path class="st26" d="M270.3,194.2c0,0-12.3,10.8-14.6,3.8C253.4,190.9,270.3,194.2,270.3,194.2z"/>
			<path class="st26" d="M269.1,194c0,0,8.2,14.2,0.8,15C262.6,209.9,269.1,194,269.1,194z"/>
		</g>
		<g>
			<path class="st25" d="M286.8,192.7c0,0,3.4,16-3.8,14.6C275.7,205.8,286.8,192.7,286.8,192.7z"/>
			<path class="st25" d="M285.5,192.8c0,0,16.3-1.3,13.9,5.7C297,205.4,285.5,192.8,285.5,192.8z"/>
			<path class="st26" d="M287.3,192.5c0,0-7.6,14.5-12.2,8.8S287.3,192.5,287.3,192.5z"/>
			<path class="st26" d="M286.1,192.8c0,0,12.7,10.3,6.2,13.7S286.1,192.8,286.1,192.8z"/>
		</g>
		<g>
			<path class="st25" d="M388,193.2c0,0,3.4,16-3.8,14.6C377,206.3,388,193.2,388,193.2z"/>
			<path class="st25" d="M386.7,193.2c0,0,16.3-1.3,13.9,5.7C398.3,205.9,386.7,193.2,386.7,193.2z"/>
			<path class="st26" d="M388.5,193c0,0-7.6,14.5-12.2,8.8C371.6,196,388.5,193,388.5,193z"/>
			<path class="st26" d="M387.3,193.3c0,0,12.7,10.3,6.2,13.7S387.3,193.3,387.3,193.3z"/>
		</g>
		<g>
			<path class="st25" d="M435.8,194.5c0,0,3.4,16-3.8,14.6C424.7,207.6,435.8,194.5,435.8,194.5z"/>
			<path class="st25" d="M434.5,194.5c0,0,16.3-1.3,13.9,5.7C446.1,207.2,434.5,194.5,434.5,194.5z"/>
			<path class="st26" d="M436.3,194.3c0,0-7.6,14.5-12.2,8.8C419.4,197.3,436.3,194.3,436.3,194.3z"/>
			<path class="st26" d="M435.1,194.6c0,0,12.7,10.3,6.2,13.7S435.1,194.6,435.1,194.6z"/>
		</g>
		<g>
			<path class="st25" d="M448.5,196.4c0,0,8.4,14,1.1,15C442.3,212.4,448.5,196.4,448.5,196.4z"/>
			<path class="st25" d="M447.2,196.9c0,0,15-6.5,15,0.8C462.3,205.1,447.2,196.9,447.2,196.9z"/>
			<path class="st26" d="M448.9,196.1c0,0-2.5,16.2-8.8,12.2C433.9,204.4,448.9,196.1,448.9,196.1z"/>
			<path class="st26" d="M447.9,196.7c0,0,15.4,5.6,10.3,11C453.1,213.1,447.9,196.7,447.9,196.7z"/>
		</g>
		<g>
			<path class="st25" d="M305.6,192.7c0,0,3.4,16-3.8,14.6C294.6,205.8,305.6,192.7,305.6,192.7z"/>
			<path class="st25" d="M304.3,192.8c0,0,16.3-1.3,13.9,5.7C315.9,205.4,304.3,192.8,304.3,192.8z"/>
			<path class="st26" d="M306.1,192.5c0,0-7.6,14.5-12.2,8.8S306.1,192.5,306.1,192.5z"/>
			<path class="st26" d="M305,192.8c0,0,12.7,10.3,6.2,13.7C304.6,210,305,192.8,305,192.8z"/>
		</g>
		<g>
			<path class="st25" d="M320.4,193.2c0,0,8.4,14,1.1,15C314.2,209.1,320.4,193.2,320.4,193.2z"/>
			<path class="st25" d="M319.2,193.6c0,0,15-6.5,15,0.9C334.2,201.9,319.2,193.6,319.2,193.6z"/>
			<path class="st26" d="M320.8,192.8c0,0-2.5,16.2-8.8,12.2C305.8,201.1,320.8,192.8,320.8,192.8z"/>
			<path class="st26" d="M319.8,193.5c0,0,15.4,5.6,10.3,11C325,209.8,319.8,193.5,319.8,193.5z"/>
		</g>
		<g>
			<path class="st25" d="M339.4,192.7c0,0,3.4,16-3.8,14.6C328.3,205.8,339.4,192.7,339.4,192.7z"/>
			<path class="st25" d="M338,192.8c0,0,16.3-1.3,13.9,5.7C349.6,205.4,338,192.8,338,192.8z"/>
			<path class="st26" d="M339.9,192.5c0,0-7.6,14.5-12.2,8.8C323,195.6,339.9,192.5,339.9,192.5z"/>
			<path class="st26" d="M338.7,192.8c0,0,12.7,10.3,6.2,13.7S338.7,192.8,338.7,192.8z"/>
		</g>
		<g>
			<path class="st25" d="M354.3,192.7c0,0,3.4,16-3.8,14.6C343.2,205.8,354.3,192.7,354.3,192.7z"/>
			<path class="st25" d="M352.9,192.8c0,0,16.3-1.3,13.9,5.7C364.5,205.4,352.9,192.8,352.9,192.8z"/>
			<path class="st26" d="M354.8,192.5c0,0-7.6,14.5-12.2,8.8S354.8,192.5,354.8,192.5z"/>
			<path class="st26" d="M353.6,192.8c0,0,12.7,10.3,6.2,13.7C353.3,210,353.6,192.8,353.6,192.8z"/>
		</g>
		<g>
			<path class="st25" d="M370.1,193.3c0,0,8.9,13.7,1.6,15C364.5,209.5,370.1,193.3,370.1,193.3z"/>
			<path class="st25" d="M368.9,193.8c0,0,14.7-7.1,15,0.3C384.2,201.4,368.9,193.8,368.9,193.8z"/>
			<path class="st26" d="M370.5,192.9c0,0-1.9,16.2-8.3,12.6C355.8,201.8,370.5,192.9,370.5,192.9z"/>
			<path class="st26" d="M369.5,193.6c0,0,15.6,5,10.7,10.6C375.3,209.7,369.5,193.6,369.5,193.6z"/>
		</g>
		<g>
			<path class="st25" d="M401.7,193.8c0,0,11.6,11.6,4.7,14.3C399.6,210.9,401.7,193.8,401.7,193.8z"/>
			<path class="st25" d="M400.6,194.6c0,0,13-10,14.8-2.8C417.3,198.9,400.6,194.6,400.6,194.6z"/>
			<path class="st26" d="M402.1,193.4c0,0,1.5,16.3-5.5,14C389.5,205.1,402.1,193.4,402.1,193.4z"/>
			<path class="st26" d="M401.2,194.3c0,0,16.3,1.7,12.7,8.1C410.3,208.9,401.2,194.3,401.2,194.3z"/>
		</g>
		<g>
			<path class="st25" d="M418.4,193c0,0,6.1,15.2-1.3,15C409.8,207.8,418.4,193,418.4,193z"/>
			<path class="st25" d="M417.1,193.2c0,0,15.8-4.1,14.7,3.2C430.7,203.7,417.1,193.2,417.1,193.2z"/>
			<path class="st26" d="M418.9,192.7c0,0-5,15.6-10.6,10.7C402.7,198.6,418.9,192.7,418.9,192.7z"/>
			<path class="st26" d="M417.8,193.2c0,0,14.3,7.9,8.5,12.5C420.4,210.1,417.8,193.2,417.8,193.2z"/>
		</g>
		<g>
			<path class="st25" d="M295.2,196.8c0,0-0.6-16.3,6.3-13.7C308.4,185.8,295.2,196.8,295.2,196.8z"/>
			<path class="st25" d="M296.6,197c0,0-16.3-1.5-12.7-8C287.4,182.5,296.6,197,296.6,197z"/>
			<path class="st26" d="M294.7,196.9c0,0,10-12.9,13.6-6.5C311.9,196.9,294.7,196.9,294.7,196.9z"/>
			<path class="st26" d="M295.9,196.9c0,0-10.7-12.3-3.7-14.6C299.3,180,295.9,196.9,295.9,196.9z"/>
		</g>
		<g>
			<path class="st25" d="M311.4,196.8c0,0-0.6-16.3,6.3-13.7C324.6,185.8,311.4,196.8,311.4,196.8z"/>
			<path class="st25" d="M312.7,197c0,0-16.3-1.5-12.7-8C303.5,182.5,312.7,197,312.7,197z"/>
			<path class="st26" d="M310.9,196.9c0,0,10-12.9,13.6-6.5C328,196.9,310.9,196.9,310.9,196.9z"/>
			<path class="st26" d="M312.1,196.9c0,0-10.7-12.3-3.7-14.6C315.4,180,312.1,196.9,312.1,196.9z"/>
		</g>
		<g>
			<path class="st25" d="M329,196.8c0,0-0.6-16.3,6.3-13.7S329,196.8,329,196.8z"/>
			<path class="st25" d="M330.3,197c0,0-16.3-1.5-12.7-8S330.3,197,330.3,197z"/>
			<path class="st26" d="M328.4,196.9c0,0,10-12.9,13.6-6.5C345.6,196.9,328.4,196.9,328.4,196.9z"/>
			<path class="st26" d="M329.6,196.9c0,0-10.7-12.3-3.7-14.6C333,180,329.6,196.9,329.6,196.9z"/>
		</g>
		<g>
			<path class="st25" d="M346.5,196.8c0,0-0.6-16.3,6.3-13.7S346.5,196.8,346.5,196.8z"/>
			<path class="st25" d="M347.8,197c0,0-16.3-1.5-12.7-8S347.8,197,347.8,197z"/>
			<path class="st26" d="M346,196.9c0,0,10-12.9,13.6-6.5C363.2,196.9,346,196.9,346,196.9z"/>
			<path class="st26" d="M347.2,196.9c0,0-10.7-12.3-3.7-14.6C350.5,180,347.2,196.9,347.2,196.9z"/>
		</g>
		<g>
			<path class="st25" d="M360.9,196.8c0,0-0.6-16.3,6.3-13.7C374.1,185.8,360.9,196.8,360.9,196.8z"/>
			<path class="st25" d="M362.2,197c0,0-16.3-1.5-12.7-8C353,182.5,362.2,197,362.2,197z"/>
			<path class="st26" d="M360.4,196.9c0,0,10-12.9,13.6-6.5C377.6,196.9,360.4,196.9,360.4,196.9z"/>
			<path class="st26" d="M361.6,196.9c0,0-10.7-12.3-3.7-14.6C364.9,180,361.6,196.9,361.6,196.9z"/>
		</g>
		<g>
			<path class="st25" d="M378.5,196.8c0,0-0.6-16.3,6.3-13.7C391.7,185.8,378.5,196.8,378.5,196.8z"/>
			<path class="st25" d="M379.8,197c0,0-16.3-1.5-12.7-8S379.8,197,379.8,197z"/>
			<path class="st26" d="M378,196.9c0,0,10-12.9,13.6-6.5C395.1,196.9,378,196.9,378,196.9z"/>
			<path class="st26" d="M379.2,196.9c0,0-10.7-12.3-3.7-14.6C382.5,180,379.2,196.9,379.2,196.9z"/>
		</g>
		<g>
			<path class="st25" d="M396,196.8c0,0-0.6-16.3,6.3-13.7C409.2,185.8,396,196.8,396,196.8z"/>
			<path class="st25" d="M397.4,197c0,0-16.3-1.5-12.7-8C388.2,182.5,397.4,197,397.4,197z"/>
			<path class="st26" d="M395.5,196.9c0,0,10-12.9,13.6-6.5C412.7,196.9,395.5,196.9,395.5,196.9z"/>
			<path class="st26" d="M396.7,196.9c0,0-10.7-12.3-3.7-14.6C400.1,180,396.7,196.9,396.7,196.9z"/>
		</g>
		<g>
			<path class="st25" d="M413.5,196.8c0,0-0.6-16.3,6.3-13.7C426.7,185.8,413.5,196.8,413.5,196.8z"/>
			<path class="st25" d="M414.8,197c0,0-16.3-1.5-12.7-8C405.6,182.5,414.8,197,414.8,197z"/>
			<path class="st26" d="M413,196.9c0,0,10-12.9,13.6-6.5C430.1,196.9,413,196.9,413,196.9z"/>
			<path class="st26" d="M414.2,196.9c0,0-10.7-12.3-3.7-14.6C417.5,180,414.2,196.9,414.2,196.9z"/>
		</g>
		<g>
			<path class="st25" d="M431.1,196.8c0,0-0.6-16.3,6.3-13.7S431.1,196.8,431.1,196.8z"/>
			<path class="st25" d="M432.4,197c0,0-16.3-1.5-12.7-8C423.2,182.5,432.4,197,432.4,197z"/>
			<path class="st26" d="M430.6,196.9c0,0,10-12.9,13.6-6.5C447.7,196.9,430.6,196.9,430.6,196.9z"/>
			<path class="st26" d="M431.8,196.9c0,0-10.7-12.3-3.7-14.6C435.1,180,431.8,196.9,431.8,196.9z"/>
		</g>
		<g>
			<path class="st25" d="M448.6,196.8c0,0-0.6-16.3,6.3-13.7C461.8,185.8,448.6,196.8,448.6,196.8z"/>
			<path class="st25" d="M450,197c0,0-16.3-1.5-12.7-8C440.8,182.5,450,197,450,197z"/>
			<path class="st26" d="M448.1,196.9c0,0,10-12.9,13.6-6.5C465.3,196.9,448.1,196.9,448.1,196.9z"/>
			<path class="st26" d="M449.3,196.9c0,0-10.7-12.3-3.7-14.6C452.6,180,449.3,196.9,449.3,196.9z"/>
		</g>
		<g>
			<path class="st21" d="M267.8,193.9c0,0-5-10-6.8-6.4c-1.8,3.6-4.7,7.2-1.3,8.6C263.2,197.5,267.8,193.9,267.8,193.9z"/>
			<path class="st21" d="M268.3,194.1c0,0,11.1,1.1,9-2.3c-2.1-3.4-3.6-7.8-6.6-5.7C267.7,188.2,268.3,194.1,268.3,194.1z"/>
			<path class="st21" d="M267.1,195c0,0-1.9,5-0.7,7.7l1.8-0.3c0,0-0.6-5.6,0.2-6.6C268.4,195.8,267.7,194,267.1,195z"/>
			<path class="st21" d="M270,194.2c0,0,3.6,3.9,3.4,7l-1.8,0.3c0,0-1.4-5.4-2.5-6.1C269,195.4,269,193.6,270,194.2z"/>
			<path class="st23" d="M270.6,193.9c0,1.2-1,2.2-2.2,2.2c-1.2,0-2.2-1-2.2-2.2c0-1.2,1-2.2,2.2-2.2
				C269.6,191.7,270.6,192.7,270.6,193.9z"/>
		</g>
		<g>
			<path class="st21" d="M443.8,194.4c0,0-5-10-6.8-6.4c-1.8,3.6-4.7,7.2-1.3,8.6C439.2,198,443.8,194.4,443.8,194.4z"/>
			<path class="st21" d="M444.3,194.6c0,0,11.1,1.1,9-2.3c-2.1-3.4-3.6-7.8-6.6-5.7C443.7,188.7,444.3,194.6,444.3,194.6z"/>
			<path class="st21" d="M443.1,195.5c0,0-1.9,5-0.7,7.7l1.8-0.3c0,0-0.6-5.6,0.2-6.6C444.4,196.3,443.7,194.5,443.1,195.5z"/>
			<path class="st21" d="M446,194.7c0,0,3.6,3.9,3.4,7l-1.8,0.3c0,0-1.4-5.4-2.5-6.1C445,195.9,445,194.1,446,194.7z"/>
			<path class="st23" d="M446.6,194.4c0,1.2-1,2.2-2.2,2.2c-1.2,0-2.2-1-2.2-2.2c0-1.2,1-2.2,2.2-2.2
				C445.6,192.2,446.6,193.2,446.6,194.4z"/>
		</g>
		<g>
			<path class="st21" d="M358.9,196.9c0,0-3-10.8-5.4-7.5c-2.4,3.2-6,6.2-2.9,8.2C353.6,199.5,358.9,196.9,358.9,196.9z"/>
			<path class="st21" d="M359.3,197.1c0,0,10.7,3.2,9.3-0.6c-1.4-3.8-2-8.4-5.4-6.8C359.8,191.3,359.3,197.1,359.3,197.1z"/>
			<path class="st21" d="M358,197.8c0,0-2.8,4.5-2.2,7.5l1.9,0c0,0,0.5-5.6,1.4-6.4C359.1,198.8,358.7,197,358,197.8z"/>
			<path class="st21" d="M360.9,197.6c0,0,2.7,4.5,2,7.5l-1.9,0c0,0-0.4-5.6-1.3-6.5C359.8,198.6,360.1,196.8,360.9,197.6z"/>
			<path class="st23" d="M361.6,197.4c-0.2,1.2-1.4,2-2.6,1.7c-1.2-0.2-2-1.4-1.7-2.6c0.2-1.2,1.4-2,2.6-1.7
				C361.1,195,361.8,196.2,361.6,197.4z"/>
		</g>
		<path class="st27" d="M256,199.7c0,0,20.6,38.1,64.9,8.3c0,0,40.2,34.1,76.9-2.9c0,0,41.2,38.6,62.9,0"/>
		<g>
			<path class="st21" d="M310.6,197c0,0-2.7-10.8-5.2-7.7c-2.5,3.2-6.2,6-3.1,8.1C305.3,199.5,310.6,197,310.6,197z"/>
			<path class="st21" d="M311,197.3c0,0,10.6,3.5,9.3-0.3c-1.3-3.8-1.8-8.4-5.2-7C311.7,191.5,311,197.3,311,197.3z"/>
			<path class="st21" d="M309.7,197.9c0,0-2.9,4.4-2.4,7.4l1.9,0.1c0,0,0.6-5.6,1.6-6.4C310.8,199,310.5,197.1,309.7,197.9z"/>
			<path class="st21" d="M312.6,197.8c0,0,2.6,4.6,1.8,7.5l-1.9-0.1c0,0-0.2-5.6-1.1-6.5C311.5,198.8,311.9,197,312.6,197.8z"/>
			<path class="st23" d="M313.3,197.6c-0.3,1.2-1.4,1.9-2.6,1.7c-1.2-0.3-1.9-1.4-1.7-2.6c0.3-1.2,1.4-1.9,2.6-1.7
				C312.9,195.3,313.6,196.4,313.3,197.6z"/>
		</g>
		<g>
			<path class="st21" d="M398.5,194.2c0,0-2.9-10.8-5.3-7.6c-2.5,3.2-6.1,6.1-3,8.1C393.2,196.8,398.5,194.2,398.5,194.2z"/>
			<path class="st21" d="M398.9,194.5c0,0,10.7,3.3,9.3-0.5c-1.4-3.8-1.9-8.4-5.3-6.9C399.5,188.6,398.9,194.5,398.9,194.5z"/>
			<path class="st21" d="M397.5,195.1c0,0-2.9,4.5-2.2,7.4l1.9,0c0,0,0.5-5.6,1.5-6.4C398.7,196.1,398.3,194.3,397.5,195.1z"/>
			<path class="st21" d="M400.5,195c0,0,2.7,4.6,1.9,7.5l-1.9,0c0,0-0.3-5.6-1.2-6.5C399.3,195.9,399.7,194.1,400.5,195z"/>
			<path class="st23" d="M401.2,194.7c-0.2,1.2-1.4,1.9-2.6,1.7c-1.2-0.2-1.9-1.4-1.7-2.6c0.2-1.2,1.4-1.9,2.6-1.7
				C400.7,192.4,401.4,193.6,401.2,194.7z"/>
		</g>
	</g>
	<g>
		<g>
			<g>
				<g>
					<g>
						<path class="st25" d="M406.5,40.5c0,0,8.7,6.6,4.4,9.1C406.6,52,406.5,40.5,406.5,40.5z"/>
						<path class="st25" d="M405.9,41.1c0,0,7.7-7.8,9.5-3.2C417.2,42.5,405.9,41.1,405.9,41.1z"/>
						<path class="st26" d="M406.7,40.2c0,0,2.4,10.7-2.4,9.8C399.4,49.1,406.7,40.2,406.7,40.2z"/>
						<path class="st26" d="M406.2,40.9c0,0,10.9-0.3,9.1,4.3S406.2,40.9,406.2,40.9z"/>
					</g>
					<g>
						<path class="st25" d="M405,44.4c0,0-5.9-9.2-1-10C408.8,33.6,405,44.4,405,44.4z"/>
						<path class="st25" d="M405.8,44c0,0-9.9,4.7-10.1-0.3C395.6,38.9,405.8,44,405.8,44z"/>
						<path class="st26" d="M404.7,44.6c0,0,1.3-10.8,5.6-8.4C414.6,38.8,404.7,44.6,404.7,44.6z"/>
						<path class="st26" d="M405.4,44.2c0,0-10.4-3.4-7.1-7.1C401.6,33.4,405.4,44.2,405.4,44.2z"/>
					</g>
				</g>
				<g>
					<g>
						<path class="st25" d="M393.9,44c0,0,8.7,6.6,4.4,9.1C394,55.4,393.9,44,393.9,44z"/>
						<path class="st25" d="M393.2,44.6c0,0,7.7-7.8,9.5-3.2C404.6,46,393.2,44.6,393.2,44.6z"/>
						<path class="st26" d="M394.1,43.7c0,0,2.4,10.7-2.4,9.8S394.1,43.7,394.1,43.7z"/>
						<path class="st26" d="M393.6,44.3c0,0,10.9-0.3,9.1,4.3C400.9,53.2,393.6,44.3,393.6,44.3z"/>
					</g>
					<g>
						<path class="st25" d="M392.4,47.9c0,0-5.9-9.2-1-10C396.2,37.1,392.4,47.9,392.4,47.9z"/>
						<path class="st25" d="M393.2,47.5c0,0-9.9,4.7-10.1-0.3C383,42.3,393.2,47.5,393.2,47.5z"/>
						<path class="st26" d="M392.1,48.1c0,0,1.3-10.8,5.6-8.4C402,42.2,392.1,48.1,392.1,48.1z"/>
						<path class="st26" d="M392.8,47.6c0,0-10.4-3.4-7.1-7.1C389,36.8,392.8,47.6,392.8,47.6z"/>
					</g>
				</g>
				<g>
					<g>
						<path class="st25" d="M381.2,46.3c0,0,8.7,6.6,4.4,9.1C381.3,57.7,381.2,46.3,381.2,46.3z"/>
						<path class="st25" d="M380.5,46.9c0,0,7.7-7.8,9.5-3.2C391.9,48.3,380.5,46.9,380.5,46.9z"/>
						<path class="st26" d="M381.3,46c0,0,2.4,10.7-2.4,9.8C374.1,54.8,381.3,46,381.3,46z"/>
						<path class="st26" d="M380.9,46.6c0,0,10.9-0.3,9.1,4.3S380.9,46.6,380.9,46.6z"/>
					</g>
					<g>
						<path class="st25" d="M379.7,50.2c0,0-5.9-9.2-1-10C383.5,39.4,379.7,50.2,379.7,50.2z"/>
						<path class="st25" d="M380.5,49.8c0,0-9.9,4.7-10.1-0.3C370.3,44.6,380.5,49.8,380.5,49.8z"/>
						<path class="st26" d="M379.4,50.4c0,0,1.3-10.8,5.6-8.4S379.4,50.4,379.4,50.4z"/>
						<path class="st26" d="M380.1,49.9c0,0-10.4-3.4-7.1-7.1C376.2,39.1,380.1,49.9,380.1,49.9z"/>
					</g>
				</g>
				<g>
					<g>
						<path class="st25" d="M368.3,48.4c0,0,8.7,6.6,4.4,9.1C368.4,59.9,368.3,48.4,368.3,48.4z"/>
						<path class="st25" d="M367.6,49.1c0,0,7.7-7.8,9.5-3.2C379,50.4,367.6,49.1,367.6,49.1z"/>
						<path class="st26" d="M368.4,48.1c0,0,2.4,10.7-2.4,9.8C361.2,57,368.4,48.1,368.4,48.1z"/>
						<path class="st26" d="M368,48.8c0,0,10.9-0.3,9.1,4.3S368,48.8,368,48.8z"/>
					</g>
					<g>
						<path class="st25" d="M366.8,52.3c0,0-5.9-9.2-1-10C370.6,41.5,366.8,52.3,366.8,52.3z"/>
						<path class="st25" d="M367.6,52c0,0-9.9,4.7-10.1-0.3C357.4,46.8,367.6,52,367.6,52z"/>
						<path class="st26" d="M366.5,52.6c0,0,1.3-10.8,5.6-8.4C376.4,46.7,366.5,52.6,366.5,52.6z"/>
						<path class="st26" d="M367.2,52.1c0,0-10.4-3.4-7.1-7.1C363.3,41.3,367.2,52.1,367.2,52.1z"/>
					</g>
				</g>
			</g>
			<g>
				<g>
					<g>
						<path class="st25" d="M345.5,48c0,0,5.6,9.4,0.7,10C341.3,58.7,345.5,48,345.5,48z"/>
						<path class="st25" d="M344.7,48.3c0,0,10-4.3,10,0.6C354.7,53.9,344.7,48.3,344.7,48.3z"/>
						<path class="st26" d="M345.8,47.8c0,0-1.7,10.8-5.9,8.1C335.7,53.3,345.8,47.8,345.8,47.8z"/>
						<path class="st26" d="M345.1,48.2c0,0,10.2,3.8,6.8,7.4S345.1,48.2,345.1,48.2z"/>
					</g>
					<g>
						<path class="st25" d="M342.6,51c0,0-2-10.7,2.8-9.7C350.2,42.5,342.6,51,342.6,51z"/>
						<path class="st25" d="M343.5,51c0,0-10.9,0.6-9.2-4C336,42.4,343.5,51,343.5,51z"/>
						<path class="st26" d="M342.3,51.2c0,0,5.3-9.5,8.3-5.6C353.6,49.4,342.3,51.2,342.3,51.2z"/>
						<path class="st26" d="M343.1,51c0,0-8.3-7.1-3.9-9.3S343.1,51,343.1,51z"/>
					</g>
				</g>
				<g>
					<g>
						<path class="st25" d="M332.5,46.5c0,0,5.6,9.4,0.7,10C328.3,57.1,332.5,46.5,332.5,46.5z"/>
						<path class="st25" d="M331.7,46.8c0,0,10-4.3,10,0.6C341.7,52.4,331.7,46.8,331.7,46.8z"/>
						<path class="st26" d="M332.8,46.3c0,0-1.7,10.8-5.9,8.1C322.7,51.8,332.8,46.3,332.8,46.3z"/>
						<path class="st26" d="M332.1,46.7c0,0,10.2,3.8,6.8,7.4C335.5,57.6,332.1,46.7,332.1,46.7z"/>
					</g>
					<g>
						<path class="st25" d="M329.6,49.5c0,0-2-10.7,2.8-9.7C337.2,40.9,329.6,49.5,329.6,49.5z"/>
						<path class="st25" d="M330.5,49.5c0,0-10.9,0.6-9.2-4C323,40.9,330.5,49.5,330.5,49.5z"/>
						<path class="st26" d="M329.3,49.6c0,0,5.3-9.5,8.3-5.6C340.6,47.9,329.3,49.6,329.3,49.6z"/>
						<path class="st26" d="M330.1,49.5c0,0-8.3-7.1-3.9-9.3S330.1,49.5,330.1,49.5z"/>
					</g>
				</g>
				<g>
					<g>
						<path class="st25" d="M319.8,43.8c0,0,5.6,9.4,0.7,10C315.6,54.5,319.8,43.8,319.8,43.8z"/>
						<path class="st25" d="M319,44.2c0,0,10-4.3,10,0.6C329,49.7,319,44.2,319,44.2z"/>
						<path class="st26" d="M320.1,43.6c0,0-1.7,10.8-5.9,8.1C310,49.1,320.1,43.6,320.1,43.6z"/>
						<path class="st26" d="M319.4,44c0,0,10.2,3.8,6.8,7.4C322.9,55,319.4,44,319.4,44z"/>
					</g>
					<g>
						<path class="st25" d="M317,46.9c0,0-2-10.7,2.8-9.7C324.6,38.3,317,46.9,317,46.9z"/>
						<path class="st25" d="M317.9,46.9c0,0-10.9,0.6-9.2-4C310.3,38.2,317.9,46.9,317.9,46.9z"/>
						<path class="st26" d="M316.6,47c0,0,5.3-9.5,8.3-5.6C328,45.3,316.6,47,316.6,47z"/>
						<path class="st26" d="M317.4,46.8c0,0-8.3-7.1-3.9-9.3S317.4,46.8,317.4,46.8z"/>
					</g>
				</g>
				<g>
					<g>
						<path class="st25" d="M307.1,41c0,0,5.6,9.4,0.7,10C302.8,51.7,307.1,41,307.1,41z"/>
						<path class="st25" d="M306.2,41.3c0,0,10-4.3,10,0.6C316.2,46.9,306.2,41.3,306.2,41.3z"/>
						<path class="st26" d="M307.3,40.8c0,0-1.7,10.8-5.9,8.1C297.3,46.3,307.3,40.8,307.3,40.8z"/>
						<path class="st26" d="M306.6,41.2c0,0,10.2,3.8,6.8,7.4S306.6,41.2,306.6,41.2z"/>
					</g>
					<g>
						<path class="st25" d="M304.2,44.1c0,0-2-10.7,2.8-9.7C311.8,35.5,304.2,44.1,304.2,44.1z"/>
						<path class="st25" d="M305.1,44c0,0-10.9,0.6-9.2-4C297.6,35.4,305.1,44,305.1,44z"/>
						<path class="st26" d="M303.9,44.2c0,0,5.3-9.5,8.3-5.6C315.2,42.4,303.9,44.2,303.9,44.2z"/>
						<path class="st26" d="M304.7,44c0,0-8.3-7.1-3.9-9.3S304.7,44,304.7,44z"/>
					</g>
				</g>
			</g>
			<g>
				<g>
					<path class="st21" d="M358.2,53.3c0,0-7.6-21.8-12.2-14.9c-4.6,7-11.6,13.5-5,17.3C347.7,59.5,358.2,53.3,358.2,53.3z"/>
					<path class="st21" d="M359.1,53.9c0,0,22.5,5.2,19.1-2.4s-5.3-17-12-13.4C359.5,41.7,359.1,53.9,359.1,53.9z"/>
					<path class="st21" d="M356.4,55.4c0,0-5.2,9.6-3.5,15.7l3.8-0.2c0,0,0.2-11.6,2.1-13.5C358.9,57.3,357.9,53.6,356.4,55.4z"/>
					<path class="st21" d="M362.5,54.6c0,0,6.2,9,5.2,15.2l-3.8,0.2c0,0-1.5-11.5-3.6-13.2C360.2,56.8,360.8,53,362.5,54.6z"/>
					<path class="st23" d="M363.9,54.1c-0.3,2.5-2.6,4.2-5.1,3.9c-2.5-0.3-4.2-2.6-3.9-5.1c0.3-2.5,2.6-4.2,5.1-3.9
						C362.5,49.3,364.2,51.6,363.9,54.1z"/>
				</g>
				<path class="st10" d="M356.9,49.7c0,0-6.7-15.8-9.2-12.2C345.2,41.1,356,49.5,356.9,49.7z"/>
				<path class="st10" d="M360,49c0,0,1.2-12.3,10-11.5C370,37.5,372.5,39.4,360,49z"/>
				<path class="st10" d="M353.7,50.4c0,0-6.3-7.8-7.5-5.6C345,46.9,353.7,50.4,353.7,50.4z"/>
				<path class="st10" d="M353.1,52.5c0,0-9.8-2.2-9.4,0.3C344,55.2,353.1,52.5,353.1,52.5z"/>
				<path class="st10" d="M366.1,52.6c0,0,10,0.8,9.3-1.5C374.7,48.7,366.1,52.6,366.1,52.6z"/>
				<path class="st10" d="M365,50.7c0,0,8.4-5.6,6.3-7C369.3,42.3,365,50.7,365,50.7z"/>
			</g>
		</g>
		<circle class="st12" cx="314.6" cy="46.8" r="0.9"/>
		<path class="st12" d="M328,49.6c0,0.5-0.4,0.9-0.9,0.9c-0.5,0-0.9-0.4-0.9-0.9c0-0.5,0.4-0.9,0.9-0.9
			C327.6,48.7,328,49.1,328,49.6z"/>
		<path class="st12" d="M325.6,41.9c0,0.5-0.4,0.9-0.9,0.9c-0.5,0-0.9-0.4-0.9-0.9c0-0.5,0.4-0.9,0.9-0.9
			C325.2,41,325.6,41.4,325.6,41.9z"/>
		<circle class="st12" cx="305.7" cy="39.2" r="0.9"/>
		<path class="st12" d="M383,49.2c0,0.5-0.4,0.9-0.9,0.9c-0.5,0-0.9-0.4-0.9-0.9c0-0.5,0.4-0.9,0.9-0.9
			C382.6,48.3,383,48.7,383,49.2z"/>
		<circle class="st12" cx="402.5" cy="46.3" r="0.9"/>
		<path class="st12" d="M410.8,39.8c0,0.5-0.4,0.9-0.9,0.9c-0.5,0-0.9-0.4-0.9-0.9c0-0.5,0.4-0.9,0.9-0.9
			C410.4,38.9,410.8,39.3,410.8,39.8z"/>
		<path class="st12" d="M303.3,43.7c0,0.5-0.4,0.9-0.9,0.9c-0.5,0-0.9-0.4-0.9-0.9c0-0.5,0.4-0.9,0.9-0.9
			C302.9,42.9,303.3,43.3,303.3,43.7z"/>
		<circle class="st12" cx="390.2" cy="48.7" r="0.9"/>
		<path class="st12" d="M390.9,43c0,0.5-0.4,0.9-0.9,0.9c-0.5,0-0.9-0.4-0.9-0.9c0-0.5,0.4-0.9,0.9-0.9
			C390.5,42.1,390.9,42.5,390.9,43z"/>
		<circle class="st12" cx="398.1" cy="42" r="0.9"/>
	</g>
	<g>
		<g>
			<path class="st26" d="M287.8,371.4c-20-3.6-87.1-150.6-87.1-150.6s-67.1,147-87.1,150.6c0,0,30.8,1.8,54.4-16.3l-34.5,36.3
				c0,0,43.5,5.4,67.1-20c23.6,25.4,67.1,20,67.1,20L233.4,355C257,373.2,287.8,371.4,287.8,371.4z"/>
			<path class="st25" d="M266.8,285.2c-15.1-2.8-66.1-114.3-66.1-114.3s-50.9,111.5-66.1,114.3c0,0,23.4,1.4,41.3-12.4l-26.2,27.5
				c0,0,33,4.1,50.9-15.1c17.9,19.3,50.9,15.1,50.9,15.1l-26.2-27.5C243.4,286.6,266.8,285.2,266.8,285.2z"/>
			<path class="st26" d="M251.8,217c-11.7-2.1-51.1-88.4-51.1-88.4s-39.4,86.2-51.1,88.4c0,0,18.1,1.1,31.9-9.6l-20.2,21.3
				c0,0,25.5,3.2,39.4-11.7c13.8,14.9,39.4,11.7,39.4,11.7l-20.2-21.3C233.7,218,251.8,217,251.8,217z"/>
			<path class="st25" d="M240.5,166.5c-9.1-1.7-39.8-68.7-39.8-68.7s-30.6,67.1-39.8,68.7c0,0,14.1,0.8,24.8-7.5l-15.7,16.6
				c0,0,19.9,2.5,30.6-9.1c10.8,11.6,30.6,9.1,30.6,9.1l-15.7-16.6C226.4,167.3,240.5,166.5,240.5,166.5z"/>
			<g>
				<path class="st28" d="M287.8,371.4c-9.5-1.7-29.5-35.6-48-70.8c7,0.3,11.8-0.3,11.8-0.3l-25.8-27.2c0-0.1-0.1-0.1-0.1-0.2
					c17.9,13.6,41.1,12.2,41.1,12.2c-7.4-1.3-23.4-28.8-37.8-56.4c6.4,0.5,11.1-0.1,11.1-0.1l-20.2-21.3
					c13.8,10.6,31.9,9.6,31.9,9.6c-5.5-1-17.2-20.7-28-41.2c4.4,0.2,7.5-0.1,7.5-0.1l-15.7-16.6c10.8,8.3,24.8,7.5,24.8,7.5
					c-9.1-1.7-39.8-68.7-39.8-68.7s-0.4,0.9-1.1,2.4c8,21.6,22.4,58.1,29.3,62c0.5,0.2,0.8,0.3,0.8,0.3c-0.3,0-0.5-0.2-0.8-0.3
					c-3.3-1.3-15.9-6.6-25.2-13.8l20.6,25.1c0,0-6.8-1.4-11.2-1.7c10.4,19.8,23.5,39.1,29.4,41.3c0.4,0.1,0.6,0.2,0.6,0.2
					c-0.2,0-0.4-0.1-0.6-0.2c-3.4-1-20.1-6.4-32.5-15.9l19.3,27.5c0,0-6.7-3.3-13.1-3.8c14.4,27.6,32.4,59,39.8,60.3
					c0,0-21.5-3.8-39.3-17.3c0,0.1,3.6,7.6,3.6,7.6l20.6,24.9c0,0-4.8,0.6-11.8,0.3c18.5,35.2,38.5,69.1,48,70.8
					c0,0-29.6-3.5-53.2-21.6l33.2,41.6c0,0-40.5-1.4-64.1-26.8c3.5,4.2,6,7.8,7.6,11c0,0,0.1-0.1,0.1-0.1c23.6,25.4,67.1,20,67.1,20
					L233.4,355C257,373.2,287.8,371.4,287.8,371.4z"/>
			</g>
			<g>
				<g>
					<path class="st21" d="M184.9,142.1c0,1.2-1,2.2-2.2,2.2c-1.2,0-2.2-1-2.2-2.2c0-1.2,1-2.2,2.2-2.2
						C183.9,139.9,184.9,140.9,184.9,142.1z"/>
					<path class="st29" d="M184.5,141.6c0,0.5-0.4,1-1,1c-0.5,0-1-0.4-1-1c0-0.5,0.4-1,1-1C184.1,140.7,184.5,141.1,184.5,141.6z"/>
					<ellipse class="st30" cx="183.9" cy="141.5" rx="0.4" ry="0.5"/>
				</g>
				<g>
					<ellipse class="st21" cx="186.9" cy="145.7" rx="2.2" ry="2.2"/>
					<path class="st29" d="M188.7,145.2c0,0.5-0.4,1-1,1c-0.5,0-1-0.4-1-1s0.4-1,1-1C188.2,144.3,188.7,144.7,188.7,145.2z"/>
					<path class="st30" d="M188.5,145.1c0,0.2-0.2,0.5-0.4,0.5c-0.2,0-0.4-0.2-0.4-0.5c0-0.2,0.2-0.4,0.4-0.4
						C188.3,144.7,188.5,144.9,188.5,145.1z"/>
				</g>
				<g>
					<path class="st21" d="M194.1,148.7c0,1.2-1,2.2-2.2,2.2c-1.2,0-2.2-1-2.2-2.2c0-1.2,1-2.2,2.2-2.2
						C193.1,146.5,194.1,147.5,194.1,148.7z"/>
					<path class="st29" d="M193.7,148.3c0,0.5-0.4,1-1,1c-0.5,0-1-0.4-1-1c0-0.5,0.4-1,1-1C193.3,147.3,193.7,147.7,193.7,148.3z"/>
					<ellipse class="st30" cx="193.2" cy="148.2" rx="0.4" ry="0.5"/>
				</g>
				<g>
					<ellipse class="st21" cx="198.1" cy="151.7" rx="2.2" ry="2.2"/>
					<path class="st29" d="M199.9,151.2c0,0.5-0.4,1-1,1c-0.5,0-1-0.4-1-1s0.4-1,1-1C199.5,150.3,199.9,150.7,199.9,151.2z"/>
					<path class="st30" d="M199.7,151.1c0,0.2-0.2,0.5-0.4,0.5s-0.4-0.2-0.4-0.5c0-0.2,0.2-0.4,0.4-0.4S199.7,150.9,199.7,151.1z"/>
				</g>
				<g>
					<ellipse class="st21" cx="204.4" cy="153.5" rx="2.2" ry="2.2"/>
					<path class="st29" d="M206.2,153c0,0.5-0.4,1-1,1c-0.5,0-1-0.4-1-1s0.4-1,1-1C205.8,152.1,206.2,152.5,206.2,153z"/>
					<path class="st30" d="M206.1,152.9c0,0.2-0.2,0.4-0.4,0.4c-0.2,0-0.4-0.2-0.4-0.4c0-0.2,0.2-0.5,0.4-0.5
						C205.9,152.5,206.1,152.7,206.1,152.9z"/>
				</g>
				<g>
					<path class="st21" d="M213.4,155.7c0,1.2-1,2.2-2.2,2.2s-2.2-1-2.2-2.2c0-1.2,1-2.2,2.2-2.2S213.4,154.5,213.4,155.7z"/>
					<path class="st29" d="M213.1,155.2c0,0.5-0.4,1-1,1c-0.5,0-1-0.4-1-1c0-0.5,0.4-1,1-1C212.6,154.3,213.1,154.7,213.1,155.2z"/>
					<ellipse class="st30" cx="212.5" cy="155.1" rx="0.4" ry="0.5"/>
				</g>
				<g>
					<ellipse class="st21" cx="217.9" cy="156.4" rx="2.2" ry="2.2"/>
					<ellipse class="st29" cx="218.8" cy="156" rx="1" ry="1"/>
					<path class="st30" d="M219.6,155.9c0,0.2-0.2,0.5-0.4,0.5c-0.2,0-0.4-0.2-0.4-0.5c0-0.2,0.2-0.4,0.4-0.4
						C219.4,155.4,219.6,155.6,219.6,155.9z"/>
				</g>
				<g>
					<ellipse class="st21" cx="224.3" cy="155.9" rx="2.2" ry="2.2"/>
					<path class="st29" d="M226.1,155.5c0,0.5-0.4,1-1,1c-0.5,0-1-0.4-1-1s0.4-1,1-1C225.7,154.5,226.1,154.9,226.1,155.5z"/>
					<path class="st30" d="M226,155.4c0,0.2-0.2,0.5-0.4,0.5s-0.4-0.2-0.4-0.5c0-0.2,0.2-0.4,0.4-0.4S226,155.1,226,155.4z"/>
				</g>
				<g>
					<path class="st21" d="M231.9,154.2c0,1.2-1,2.2-2.2,2.2c-1.2,0-2.2-1-2.2-2.2c0-1.2,1-2.2,2.2-2.2
						C230.9,151.9,231.9,152.9,231.9,154.2z"/>
					<path class="st29" d="M231.5,153.7c0,0.5-0.4,1-1,1c-0.5,0-1-0.4-1-1s0.4-1,1-1C231.1,152.7,231.5,153.1,231.5,153.7z"/>
					<path class="st30" d="M231.4,153.6c0,0.2-0.2,0.5-0.4,0.5c-0.2,0-0.4-0.2-0.4-0.5c0-0.2,0.2-0.5,0.4-0.5
						C231.2,153.1,231.4,153.3,231.4,153.6z"/>
				</g>
			</g>
			<g>
				<g>
					<path class="st21" d="M178.1,337.3c0.3,1.1-0.5,2.3-1.7,2.6c-1.2,0.3-2.4-0.3-2.7-1.4c-0.3-1.1,0.5-2.3,1.7-2.6
						C176.6,335.5,177.8,336.2,178.1,337.3z"/>
					<path class="st29" d="M177.6,336.9c0.1,0.5-0.2,1-0.7,1.1c-0.5,0.1-1.1-0.1-1.2-0.6c-0.1-0.5,0.2-1,0.7-1.1
						C177,336.2,177.5,336.5,177.6,336.9z"/>
					<path class="st30" d="M177.5,336.9c0.1,0.2-0.1,0.5-0.3,0.5c-0.2,0.1-0.5-0.1-0.6-0.3c-0.1-0.2,0.1-0.5,0.3-0.5
						C177.2,336.5,177.4,336.7,177.5,336.9z"/>
				</g>
				<g>
					<path class="st21" d="M172.7,334.4c0.3,1.1-0.5,2.3-1.7,2.6c-1.2,0.3-2.4-0.3-2.7-1.4c-0.3-1.1,0.5-2.3,1.7-2.6
						C171.2,332.6,172.5,333.3,172.7,334.4z"/>
					<path class="st29" d="M172.3,334c0.1,0.5-0.2,1-0.7,1.1c-0.5,0.1-1.1-0.1-1.2-0.6c-0.1-0.5,0.2-1,0.7-1.1
						C171.6,333.3,172.1,333.6,172.3,334z"/>
					<path class="st30" d="M172.1,334c0.1,0.2-0.1,0.5-0.3,0.5s-0.5-0.1-0.6-0.3c-0.1-0.2,0.1-0.5,0.3-0.5S172,333.8,172.1,334z"/>
				</g>
				<g>
					<path class="st21" d="M166.8,330.6c0.3,1.1-0.5,2.3-1.7,2.6c-1.2,0.3-2.4-0.3-2.7-1.4c-0.3-1.1,0.5-2.3,1.7-2.6
						C165.3,328.9,166.5,329.5,166.8,330.6z"/>
					<path class="st29" d="M166.3,330.3c0.1,0.5-0.2,1-0.7,1.1c-0.5,0.1-1.1-0.1-1.2-0.6c-0.1-0.5,0.2-1,0.7-1.1
						C165.7,329.5,166.2,329.8,166.3,330.3z"/>
					<path class="st30" d="M166.2,330.2c0.1,0.2-0.1,0.5-0.3,0.5c-0.2,0.1-0.5-0.1-0.6-0.3c-0.1-0.2,0.1-0.5,0.3-0.5
						C165.9,329.9,166.1,330,166.2,330.2z"/>
				</g>
				<g>
					<path class="st21" d="M161.5,327.2c0.3,1.1-0.5,2.3-1.7,2.6c-1.2,0.3-2.4-0.3-2.7-1.4c-0.3-1.1,0.5-2.3,1.7-2.6
						C160,325.5,161.2,326.1,161.5,327.2z"/>
					<path class="st29" d="M161,326.9c0.1,0.5-0.2,1-0.7,1.1c-0.5,0.1-1.1-0.1-1.2-0.6c-0.1-0.5,0.2-1,0.7-1.1
						C160.3,326.1,160.9,326.4,161,326.9z"/>
					<path class="st30" d="M160.8,326.8c0.1,0.2-0.1,0.5-0.3,0.5c-0.2,0.1-0.5-0.1-0.6-0.3c-0.1-0.2,0.1-0.5,0.3-0.5
						S160.8,326.6,160.8,326.8z"/>
				</g>
				<g>
					<path class="st21" d="M156.8,323.8c0.3,1.1-0.5,2.3-1.7,2.6c-1.2,0.3-2.4-0.3-2.7-1.4c-0.3-1.1,0.5-2.3,1.7-2.6
						C155.3,322,156.5,322.7,156.8,323.8z"/>
					<path class="st29" d="M156.3,323.5c0.1,0.5-0.2,1-0.7,1.1c-0.5,0.1-1.1-0.1-1.2-0.6c-0.1-0.5,0.2-1,0.7-1.1
						C155.6,322.7,156.2,323,156.3,323.5z"/>
					<path class="st30" d="M156.1,323.4c0.1,0.2-0.1,0.5-0.3,0.5c-0.2,0.1-0.5-0.1-0.6-0.3c-0.1-0.2,0.1-0.5,0.3-0.5
						C155.8,323,156.1,323.2,156.1,323.4z"/>
				</g>
				<g>
					<path class="st21" d="M183.2,339.4c0.3,1.1-0.5,2.3-1.7,2.6c-1.2,0.3-2.4-0.3-2.7-1.4c-0.3-1.1,0.5-2.3,1.7-2.6
						C181.7,337.6,182.9,338.3,183.2,339.4z"/>
					<path class="st29" d="M182.7,339c0.1,0.5-0.2,1-0.7,1.1c-0.5,0.1-1.1-0.1-1.2-0.6c-0.1-0.5,0.2-1,0.7-1.1
						C182,338.3,182.6,338.6,182.7,339z"/>
					<path class="st30" d="M182.5,339c0.1,0.2-0.1,0.5-0.3,0.5s-0.5-0.1-0.6-0.3c-0.1-0.2,0.1-0.5,0.3-0.5
						C182.2,338.6,182.5,338.8,182.5,339z"/>
				</g>
				<g>
					<path class="st21" d="M189,340.7c0.3,1.1-0.5,2.3-1.7,2.6c-1.2,0.3-2.4-0.3-2.7-1.4c-0.3-1.1,0.5-2.3,1.7-2.6
						C187.5,339,188.7,339.6,189,340.7z"/>
					<path class="st29" d="M188.5,340.4c0.1,0.5-0.2,1-0.7,1.1c-0.5,0.1-1.1-0.1-1.2-0.6c-0.1-0.5,0.2-1,0.7-1.1
						C187.8,339.7,188.4,339.9,188.5,340.4z"/>
					<path class="st30" d="M188.3,340.3c0.1,0.2-0.1,0.5-0.3,0.5s-0.5-0.1-0.6-0.3c-0.1-0.2,0.1-0.5,0.3-0.5
						C188,340,188.3,340.1,188.3,340.3z"/>
				</g>
				<g>
					<path class="st21" d="M195.9,341.7c0.3,1.1-0.5,2.3-1.7,2.6c-1.2,0.3-2.4-0.3-2.7-1.4c-0.3-1.1,0.5-2.3,1.7-2.6
						C194.3,340,195.6,340.6,195.9,341.7z"/>
					<path class="st29" d="M195.4,341.4c0.1,0.5-0.2,1-0.7,1.1c-0.5,0.1-1.1-0.1-1.2-0.6c-0.1-0.5,0.2-1,0.7-1.1
						C194.7,340.7,195.2,340.9,195.4,341.4z"/>
					<path class="st30" d="M195.2,341.4c0.1,0.2-0.1,0.5-0.3,0.5c-0.2,0.1-0.5-0.1-0.6-0.3c-0.1-0.2,0.1-0.5,0.3-0.5
						C194.9,341,195.1,341.1,195.2,341.4z"/>
				</g>
				<g>
					<path class="st21" d="M202.6,341.7c0.3,1.1-0.5,2.3-1.7,2.6c-1.2,0.3-2.4-0.3-2.7-1.4c-0.3-1.1,0.5-2.3,1.7-2.6
						C201.1,339.9,202.4,340.6,202.6,341.7z"/>
					<path class="st29" d="M202.2,341.3c0.1,0.5-0.2,1-0.7,1.1c-0.5,0.1-1.1-0.1-1.2-0.6c-0.1-0.5,0.2-1,0.7-1.1
						C201.5,340.6,202,340.9,202.2,341.3z"/>
					<path class="st30" d="M202,341.3c0.1,0.2-0.1,0.5-0.3,0.5c-0.2,0.1-0.5-0.1-0.6-0.3s0.1-0.5,0.3-0.5S201.9,341.1,202,341.3z"/>
				</g>
				<g>
					<path class="st21" d="M210,341.8c0.3,1.1-0.5,2.3-1.7,2.6c-1.2,0.3-2.4-0.3-2.7-1.4c-0.3-1.1,0.5-2.3,1.7-2.6
						C208.5,340.1,209.7,340.7,210,341.8z"/>
					<path class="st29" d="M209.5,341.5c0.1,0.5-0.2,1-0.7,1.1c-0.5,0.1-1.1-0.1-1.2-0.6c-0.1-0.5,0.2-1,0.7-1.1
						C208.9,340.7,209.4,341,209.5,341.5z"/>
					<path class="st30" d="M209.4,341.4c0.1,0.2-0.1,0.5-0.3,0.5c-0.2,0.1-0.5-0.1-0.6-0.3c-0.1-0.2,0.1-0.5,0.3-0.5
						C209.1,341.1,209.3,341.2,209.4,341.4z"/>
				</g>
				<g>
					<path class="st21" d="M216.9,340.7c0.3,1.1-0.5,2.3-1.7,2.6c-1.2,0.3-2.4-0.3-2.7-1.4c-0.3-1.1,0.5-2.3,1.7-2.6
						C215.4,339,216.6,339.6,216.9,340.7z"/>
					<path class="st29" d="M216.4,340.4c0.1,0.5-0.2,1-0.7,1.1c-0.5,0.1-1.1-0.1-1.2-0.6c-0.1-0.5,0.2-1,0.7-1.1
						C215.7,339.6,216.3,339.9,216.4,340.4z"/>
					<path class="st30" d="M216.2,340.3c0.1,0.2-0.1,0.5-0.3,0.5c-0.2,0.1-0.5-0.1-0.6-0.3c-0.1-0.2,0.1-0.5,0.3-0.5
						C215.9,340,216.2,340.1,216.2,340.3z"/>
				</g>
				<g>
					<path class="st21" d="M223.5,339.2c0.3,1.1-0.5,2.3-1.7,2.6c-1.2,0.3-2.4-0.3-2.7-1.4c-0.3-1.1,0.5-2.3,1.7-2.6
						C221.9,337.5,223.2,338.1,223.5,339.2z"/>
					<path class="st29" d="M223,338.9c0.1,0.5-0.2,1-0.7,1.1c-0.5,0.1-1.1-0.1-1.2-0.6c-0.1-0.5,0.2-1,0.7-1.1
						C222.3,338.2,222.8,338.4,223,338.9z"/>
					<path class="st30" d="M222.8,338.9c0.1,0.2-0.1,0.5-0.3,0.5c-0.2,0.1-0.5-0.1-0.6-0.3c-0.1-0.2,0.1-0.5,0.3-0.5
						C222.5,338.5,222.7,338.6,222.8,338.9z"/>
				</g>
				<g>
					<path class="st21" d="M230.1,337.2c0.3,1.1-0.5,2.3-1.7,2.6c-1.2,0.3-2.4-0.3-2.7-1.4c-0.3-1.1,0.5-2.3,1.7-2.6
						C228.6,335.5,229.8,336.1,230.1,337.2z"/>
					<path class="st29" d="M229.6,336.9c0.1,0.5-0.2,1-0.7,1.1c-0.5,0.1-1.1-0.1-1.2-0.6c-0.1-0.5,0.2-1,0.7-1.1
						C229,336.2,229.5,336.4,229.6,336.9z"/>
					<path class="st30" d="M229.5,336.9c0.1,0.2-0.1,0.5-0.3,0.5c-0.2,0.1-0.5-0.1-0.6-0.3c-0.1-0.2,0.1-0.5,0.3-0.5
						C229.1,336.5,229.4,336.6,229.5,336.9z"/>
				</g>
				<g>
					<path class="st21" d="M236.8,334.3c0.3,1.1-0.5,2.3-1.7,2.6c-1.2,0.3-2.4-0.3-2.7-1.4c-0.3-1.1,0.5-2.3,1.7-2.6
						C235.2,332.5,236.5,333.2,236.8,334.3z"/>
					<path class="st29" d="M236.3,334c0.1,0.5-0.2,1-0.7,1.1c-0.5,0.1-1.1-0.1-1.2-0.6c-0.1-0.5,0.2-1,0.7-1.1
						C235.6,333.2,236.1,333.5,236.3,334z"/>
					<path class="st30" d="M236.1,333.9c0.1,0.2-0.1,0.5-0.3,0.5c-0.2,0.1-0.5-0.1-0.6-0.3c-0.1-0.2,0.1-0.5,0.3-0.5
						S236,333.7,236.1,333.9z"/>
				</g>
				<g>
					<path class="st21" d="M243.1,330.8c0.3,1.1-0.5,2.3-1.7,2.6c-1.2,0.3-2.4-0.3-2.7-1.4c-0.3-1.1,0.5-2.3,1.7-2.6
						C241.6,329,242.8,329.7,243.1,330.8z"/>
					<path class="st29" d="M242.6,330.4c0.1,0.5-0.2,1-0.7,1.1c-0.5,0.1-1.1-0.1-1.2-0.6c-0.1-0.5,0.2-1,0.7-1.1
						C241.9,329.7,242.4,330,242.6,330.4z"/>
					<path class="st30" d="M242.4,330.4c0.1,0.2-0.1,0.5-0.3,0.5c-0.2,0.1-0.5-0.1-0.6-0.3c-0.1-0.2,0.1-0.5,0.3-0.5
						C242.1,330,242.4,330.2,242.4,330.4z"/>
				</g>
				<g>
					<path class="st21" d="M249.7,327c0.3,1.1-0.5,2.3-1.7,2.6c-1.2,0.3-2.4-0.3-2.7-1.4c-0.3-1.1,0.5-2.3,1.7-2.6
						C248.2,325.2,249.4,325.9,249.7,327z"/>
					<path class="st29" d="M249.2,326.6c0.1,0.5-0.2,1-0.7,1.1c-0.5,0.1-1.1-0.1-1.2-0.6c-0.1-0.5,0.2-1,0.7-1.1
						C248.6,325.9,249.1,326.2,249.2,326.6z"/>
					<path class="st30" d="M249.1,326.6c0.1,0.2-0.1,0.5-0.3,0.5c-0.2,0.1-0.5-0.1-0.6-0.3c-0.1-0.2,0.1-0.5,0.3-0.5
						S249,326.4,249.1,326.6z"/>
				</g>
				<g>
					<path class="st21" d="M255.6,323.5c0.3,1.1-0.5,2.3-1.7,2.6c-1.2,0.3-2.4-0.3-2.7-1.4c-0.3-1.1,0.5-2.3,1.7-2.6
						C254.1,321.8,255.3,322.4,255.6,323.5z"/>
					<path class="st29" d="M255.1,323.2c0.1,0.5-0.2,1-0.7,1.1c-0.5,0.1-1.1-0.1-1.2-0.6c-0.1-0.5,0.2-1,0.7-1.1
						C254.4,322.5,255,322.7,255.1,323.2z"/>
					<path class="st30" d="M254.9,323.2c0.1,0.2-0.1,0.5-0.3,0.5c-0.2,0.1-0.5-0.1-0.6-0.3c-0.1-0.2,0.1-0.5,0.3-0.5
						C254.6,322.8,254.9,322.9,254.9,323.2z"/>
				</g>
			</g>
			<g>
				<g>
					<path class="st21" d="M179.1,195.5c0.5,1.2,0,2.6-1.2,3.1c-1.2,0.5-2.6,0-3.1-1.2c-0.5-1.2,0-2.6,1.2-3.1
						C177.2,193.8,178.5,194.3,179.1,195.5z"/>
					<path class="st29" d="M178.5,195.2c0.2,0.5,0,1.1-0.5,1.3s-1.1,0-1.3-0.5s0-1.1,0.5-1.3C177.7,194.5,178.3,194.7,178.5,195.2z"
						/>
					<path class="st30" d="M178.3,195.2c0.1,0.2,0,0.5-0.2,0.6s-0.5,0-0.6-0.2c-0.1-0.2,0-0.5,0.2-0.6
						C177.9,194.9,178.2,195,178.3,195.2z"/>
				</g>
				<g>
					<path class="st21" d="M172.6,192.1c0.5,1.2,0,2.6-1.2,3.1c-1.2,0.5-2.6,0-3.1-1.2c-0.5-1.2,0-2.6,1.2-3.1
						C170.7,190.4,172.1,190.9,172.6,192.1z"/>
					<path class="st29" d="M172.1,191.8c0.2,0.5,0,1.1-0.5,1.3s-1.1,0-1.3-0.5c-0.2-0.5,0-1.1,0.5-1.3S171.8,191.3,172.1,191.8z"/>
					<path class="st30" d="M171.9,191.8c0.1,0.2,0,0.5-0.2,0.6c-0.2,0.1-0.5,0-0.6-0.2c-0.1-0.2,0-0.5,0.2-0.6
						C171.5,191.5,171.8,191.6,171.9,191.8z"/>
				</g>
				<g>
					<path class="st21" d="M184.7,197.1c0.5,1.2,0,2.6-1.2,3.1c-1.2,0.5-2.6,0-3.1-1.2c-0.5-1.2,0-2.6,1.2-3.1
						C182.8,195.4,184.1,195.9,184.7,197.1z"/>
					<path class="st29" d="M184.1,196.8c0.2,0.5,0,1.1-0.5,1.3c-0.5,0.2-1.1,0-1.3-0.5s0-1.1,0.5-1.3
						C183.3,196.1,183.9,196.3,184.1,196.8z"/>
					<path class="st30" d="M183.9,196.8c0.1,0.2,0,0.5-0.2,0.6c-0.2,0.1-0.5,0-0.6-0.2c-0.1-0.2,0-0.5,0.2-0.6
						C183.5,196.4,183.8,196.5,183.9,196.8z"/>
				</g>
				<g>
					<path class="st21" d="M190.9,197.8c0.5,1.2,0,2.6-1.2,3.1c-1.2,0.5-2.6,0-3.1-1.2c-0.5-1.2,0-2.6,1.2-3.1
						C189,196.1,190.3,196.6,190.9,197.8z"/>
					<path class="st29" d="M190.3,197.5c0.2,0.5,0,1.1-0.5,1.3s-1.1,0-1.3-0.5s0-1.1,0.5-1.3C189.5,196.7,190.1,197,190.3,197.5z"/>
					<path class="st30" d="M190.1,197.4c0.1,0.2,0,0.5-0.2,0.6c-0.2,0.1-0.5,0-0.6-0.2c-0.1-0.2,0-0.5,0.2-0.6
						C189.7,197.1,190,197.2,190.1,197.4z"/>
				</g>
				<g>
					<path class="st21" d="M198.1,197.9c0.5,1.2,0,2.6-1.2,3.1c-1.2,0.5-2.6,0-3.1-1.2c-0.5-1.2,0-2.6,1.2-3.1
						C196.2,196.2,197.6,196.7,198.1,197.9z"/>
					<path class="st29" d="M197.5,197.6c0.2,0.5,0,1.1-0.5,1.3c-0.5,0.2-1.1,0-1.3-0.5c-0.2-0.5,0-1.1,0.5-1.3
						C196.7,196.9,197.3,197.1,197.5,197.6z"/>
					<path class="st30" d="M197.4,197.6c0.1,0.2,0,0.5-0.2,0.6c-0.2,0.1-0.5,0-0.6-0.2c-0.1-0.2,0-0.5,0.2-0.6
						C197,197.2,197.2,197.3,197.4,197.6z"/>
				</g>
				<g>
					<path class="st21" d="M205,196.8c0.5,1.2,0,2.6-1.2,3.1c-1.2,0.5-2.6,0-3.1-1.2c-0.5-1.2,0-2.6,1.2-3.1
						C203.1,195.1,204.5,195.6,205,196.8z"/>
					<path class="st29" d="M204.4,196.5c0.2,0.5,0,1.1-0.5,1.3c-0.5,0.2-1.1,0-1.3-0.5c-0.2-0.5,0-1.1,0.5-1.3
						C203.6,195.8,204.2,196,204.4,196.5z"/>
					<path class="st30" d="M204.3,196.5c0.1,0.2,0,0.5-0.2,0.6c-0.2,0.1-0.5,0-0.6-0.2c-0.1-0.2,0-0.5,0.2-0.6
						C203.9,196.1,204.2,196.2,204.3,196.5z"/>
				</g>
				<g>
					<path class="st21" d="M212.6,195.9c0.5,1.2,0,2.6-1.2,3.1c-1.2,0.5-2.6,0-3.1-1.2c-0.5-1.2,0-2.6,1.2-3.1
						C210.7,194.2,212,194.7,212.6,195.9z"/>
					<path class="st29" d="M212,195.6c0.2,0.5,0,1.1-0.5,1.3c-0.5,0.2-1.1,0-1.3-0.5c-0.2-0.5,0-1.1,0.5-1.3
						C211.2,194.9,211.8,195.1,212,195.6z"/>
					<path class="st30" d="M211.8,195.6c0.1,0.2,0,0.5-0.2,0.6s-0.5,0-0.6-0.2c-0.1-0.2,0-0.5,0.2-0.6
						C211.4,195.2,211.7,195.3,211.8,195.6z"/>
				</g>
				<g>
					<path class="st21" d="M219.4,193.7c0.5,1.2,0,2.6-1.2,3.1c-1.2,0.5-2.6,0-3.1-1.2c-0.5-1.2,0-2.6,1.2-3.1
						C217.4,192,218.8,192.5,219.4,193.7z"/>
					<path class="st29" d="M218.8,193.4c0.2,0.5,0,1.1-0.5,1.3c-0.5,0.2-1.1,0-1.3-0.5c-0.2-0.5,0-1.1,0.5-1.3
						C218,192.7,218.5,192.9,218.8,193.4z"/>
					<path class="st30" d="M218.6,193.4c0.1,0.2,0,0.5-0.2,0.6c-0.2,0.1-0.5,0-0.6-0.2c-0.1-0.2,0-0.5,0.2-0.6
						C218.2,193,218.5,193.1,218.6,193.4z"/>
				</g>
				<g>
					<path class="st21" d="M225.4,190.4c0.5,1.2,0,2.6-1.2,3.1c-1.2,0.5-2.6,0-3.1-1.2c-0.5-1.2,0-2.6,1.2-3.1
						C223.4,188.7,224.8,189.2,225.4,190.4z"/>
					<path class="st29" d="M224.8,190.1c0.2,0.5,0,1.1-0.5,1.3c-0.5,0.2-1.1,0-1.3-0.5s0-1.1,0.5-1.3
						C224,189.4,224.6,189.6,224.8,190.1z"/>
					<path class="st30" d="M224.6,190.1c0.1,0.2,0,0.5-0.2,0.6c-0.2,0.1-0.5,0-0.6-0.2c-0.1-0.2,0-0.5,0.2-0.6
						C224.2,189.7,224.5,189.8,224.6,190.1z"/>
				</g>
				<g>
					<path class="st21" d="M229.8,186.3c0.5,1.2,0,2.6-1.2,3.1c-1.2,0.5-2.6,0-3.1-1.2s0-2.6,1.2-3.1
						C227.9,184.6,229.3,185.1,229.8,186.3z"/>
					<path class="st29" d="M229.2,186c0.2,0.5,0,1.1-0.5,1.3c-0.5,0.2-1.1,0-1.3-0.5c-0.2-0.5,0-1.1,0.5-1.3S229,185.5,229.2,186z"
						/>
					<path class="st30" d="M229,186c0.1,0.2,0,0.5-0.2,0.6s-0.5,0-0.6-0.2c-0.1-0.2,0-0.5,0.2-0.6C228.7,185.7,228.9,185.8,229,186z
						"/>
				</g>
			</g>
			<g>
				<path class="st12" d="M187.8,131.1c9.6,4.3,20,4.2,29.6-0.1c2.7-1.2,1.5-6.1-1.2-4.8c-8.9,4.1-18.2,4.1-27.1,0.1
					C186.3,125.1,185.1,129.9,187.8,131.1L187.8,131.1z"/>
			</g>
			<g>
				<path class="st12" d="M174.3,186.4c19.6,11.2,41.8,17.4,64.6,18.1c3.1,0.1,3.1-4.5,0-4.6c-22-0.7-43.3-6.6-62.2-17.4
					C174.1,180.9,171.6,184.9,174.3,186.4L174.3,186.4z"/>
			</g>
			<g>
				<path class="st12" d="M154.4,267.5c28.9,1.5,57.6-4.9,83.5-18.5c2.8-1.5,0.3-5.8-2.4-4.3c-25.1,13.2-53,19.3-81,17.8
					C151.3,262.4,151.3,267.4,154.4,267.5L154.4,267.5z"/>
			</g>
			<g>
				<path class="st12" d="M157.1,313.1c26,16.2,63.5,17.8,91.5,4c2.7-1.3,0.2-4.7-2.5-3.4c-26.7,13.1-61.9,11.4-86.6-4
					C157,308.1,154.6,311.6,157.1,313.1L157.1,313.1z"/>
			</g>
			<g>
				<g>
					<path class="st12" d="M200.3,117.7c3.2,0,3.2-5,0-5C197,112.7,197,117.7,200.3,117.7L200.3,117.7z"/>
				</g>
				<g>
					<path class="st12" d="M212.5,143.6c3.2,0,3.2-5,0-5C209.3,138.6,209.3,143.6,212.5,143.6L212.5,143.6z"/>
				</g>
				<g>
					<path class="st12" d="M204.6,185.4c0,0.2,0,0.3,0,0.5c0,0.8,0.7,1.6,1.6,1.6c0.9,0,1.6-0.7,1.6-1.6c0-0.2,0-0.3,0-0.5
						c0-0.8-0.7-1.6-1.6-1.6C205.3,183.9,204.6,184.5,204.6,185.4L204.6,185.4z"/>
				</g>
				<g>
					<path class="st12" d="M216.1,241.5c3.2,0,3.2-5,0-5C212.9,236.5,212.9,241.5,216.1,241.5L216.1,241.5z"/>
				</g>
				<g>
					<path class="st12" d="M188.7,235.7c0.2,0,0.5,0,0.7,0c1.3,0,2.6-1.1,2.5-2.5c-0.1-1.4-1.1-2.5-2.5-2.5c-0.2,0-0.5,0-0.7,0
						c-1.3,0-2.6,1.1-2.5,2.5C186.3,234.6,187.3,235.7,188.7,235.7L188.7,235.7z"/>
				</g>
				<g>
					<path class="st12" d="M172.9,291.1c0.2,0,0.5,0,0.7,0c1.3,0,2.6-1.1,2.5-2.5c-0.1-1.4-1.1-2.5-2.5-2.5c-0.2,0-0.5,0-0.7,0
						c-1.3,0-2.6,1.1-2.5,2.5C170.5,290,171.5,291.1,172.9,291.1L172.9,291.1z"/>
				</g>
				<g>
					<path class="st12" d="M221.8,286.1c0.2,0,0.5,0,0.7,0c1.3,0,2.6-1.1,2.5-2.5c-0.1-1.4-1.1-2.5-2.5-2.5c-0.2,0-0.5,0-0.7,0
						c-1.3,0-2.6,1.1-2.5,2.5C219.4,285,220.4,286.1,221.8,286.1L221.8,286.1z"/>
				</g>
				<g>
					<path class="st12" d="M217.2,359.9c0,0.2,0,0.5,0,0.7c0,1.3,1.1,2.6,2.5,2.5c1.4-0.1,2.5-1.1,2.5-2.5c0-0.2,0-0.5,0-0.7
						c0-1.3-1.1-2.6-2.5-2.5C218.3,357.4,217.2,358.5,217.2,359.9L217.2,359.9z"/>
				</g>
				<g>
					<path class="st12" d="M164.3,379.6c3.2,0,3.2-5,0-5C161.1,374.6,161.1,379.6,164.3,379.6L164.3,379.6z"/>
				</g>
				<g>
					<path class="st12" d="M151.3,348.7c3.2,0,3.2-5,0-5C148.1,343.7,148.1,348.7,151.3,348.7L151.3,348.7z"/>
				</g>
			</g>
			<path class="st25" d="M178.4,178.9c4-1.1,7.9-1.9,11.6-3.2c1.9-0.6,3.7-1.3,5.5-2.2c1.7-0.9,3.4-1.9,5-3.3
				c-0.9,1.9-2.5,3.4-4.2,4.6c-1.7,1.2-3.7,2.1-5.6,2.7c-2,0.7-4,1.1-6.1,1.3C182.5,179.1,180.5,179.2,178.4,178.9z"/>
			<path class="st26" d="M182.1,172.5c1.8-0.6,3.5-1.2,5.2-1.9c1.7-0.7,3.3-1.5,4.8-2.3c1.6-0.9,3-1.9,4.4-3c1.4-1.1,2.6-2.4,4-3.8
				c-0.6,1.8-1.6,3.5-2.9,4.9c-1.3,1.4-2.8,2.7-4.5,3.6c-1.7,1-3.5,1.7-5.3,2.1C185.9,172.6,183.9,172.8,182.1,172.5z"/>
			<path class="st25" d="M192,180.7c2-1.3,3.7-2.3,5.5-3.5c0.9-0.6,1.8-1.2,2.6-1.8c0.9-0.6,1.8-1.2,2.8-1.8c-0.8,2.2-2.5,4-4.4,5.3
				c-1,0.6-2,1.1-3.1,1.5C194.3,180.6,193.1,180.8,192,180.7z"/>
			<path class="st25" d="M201.5,212.5c1.2,0.8,2.3,1.7,3.4,2.5l3.3,2.5l3.3,2.5c1.1,0.8,2.3,1.5,3.5,2.4c-1.5,0-2.9-0.4-4.2-1
				c-1.3-0.6-2.6-1.4-3.7-2.3c-1.1-0.9-2.2-1.9-3.1-3C202.9,215,202.1,213.8,201.5,212.5z"/>
			<path class="st26" d="M175,231.2c2.3-0.7,4.6-1.3,6.8-2c2.2-0.7,4.5-1.3,6.7-2.1c2.2-0.7,4.4-1.6,6.4-2.6c2.1-1,4.1-2.2,5.9-3.8
				c-1.2,2.1-3.1,3.8-5.1,5.1c-1,0.7-2.1,1.2-3.2,1.8c-1.1,0.5-2.2,1-3.4,1.3c-1.1,0.4-2.3,0.7-3.5,1c-1.2,0.3-2.3,0.5-3.5,0.7
				C179.8,231.1,177.4,231.3,175,231.2z"/>
			<path class="st25" d="M167.1,225.8l7.9-1.7c2.6-0.6,5.2-1.2,7.7-2c0.6-0.2,1.3-0.4,1.9-0.6c0.6-0.2,1.3-0.4,1.9-0.6l1.9-0.7
				l1.8-0.8c2.4-1.1,4.7-2.3,6.9-4c-1.6,2.3-3.8,4-6.2,5.4c-2.4,1.4-5,2.3-7.6,3.1c-2.6,0.8-5.3,1.3-8,1.6
				C172.6,225.9,169.8,226,167.1,225.8z"/>
			<path class="st26" d="M203.3,282.8l5.8,4.2c1.9,1.4,3.9,2.7,5.9,4c2,1.3,4,2.4,6.1,3.5c2.1,1,4.3,1.9,6.6,2.7
				c-2.4,0-4.9-0.5-7.2-1.3c-2.3-0.8-4.5-2-6.6-3.3c-2-1.3-4-2.8-5.8-4.5C206.3,286.6,204.7,284.8,203.3,282.8z"/>
			<path class="st25" d="M161.9,304.4c3.4-0.6,6.7-1.2,10-1.9c3.3-0.7,6.6-1.5,9.8-2.5c1.6-0.5,3.2-1.1,4.7-1.7
				c1.6-0.6,3.1-1.3,4.5-2.1c3-1.5,5.7-3.5,8-6c-1.7,3-4.3,5.5-7.2,7.4c-2.9,1.9-6.2,3.3-9.5,4.3c-3.3,1-6.7,1.7-10.1,2.1
				C168.8,304.5,165.3,304.7,161.9,304.4z"/>
			<path class="st26" d="M170,297c4.3-1.6,8.7-2.9,12.9-4.5c2.1-0.7,4.2-1.6,6.2-2.6c2-1,4-2,5.7-3.6c-1.1,2.1-3,3.7-4.9,4.9
				c-1,0.7-2,1.2-3.1,1.7c-1.1,0.5-2.1,0.9-3.2,1.3c-2.2,0.8-4.4,1.4-6.7,1.9C174.7,296.7,172.4,297,170,297z"/>
			<path class="st25" d="M204.7,295.2c2,0.6,4,1.3,6,1.9l5.9,2c1.9,0.6,3.9,1.3,5.9,1.9c2,0.6,4,1.1,6,1.7c-2.1,0.3-4.2,0.2-6.3-0.1
				c-2.1-0.3-4.2-0.8-6.2-1.5c-2-0.7-4-1.5-5.8-2.4C208.2,297.6,206.3,296.5,204.7,295.2z"/>
			<path class="st26" d="M184.9,288.5c0.3-0.7,0.7-1.2,1.1-1.7c0.4-0.5,0.9-0.9,1.4-1.3c0.5-0.4,1-0.7,1.6-1
				c0.6-0.3,1.2-0.5,1.9-0.6c-0.2,0.7-0.5,1.3-0.9,1.9c-0.4,0.5-0.9,1-1.4,1.4c-0.5,0.4-1.1,0.7-1.7,0.9
				C186.3,288.3,185.6,288.5,184.9,288.5z"/>
			<g>
				<g>
					<path class="st21" d="M169.6,245.4c-0.1,1.2-1.2,2-2.5,1.9s-2.2-1.2-2-2.3c0.1-1.2,1.2-2,2.5-1.9
						C168.8,243.2,169.8,244.2,169.6,245.4z"/>
					<path class="st29" d="M169.3,244.9c-0.1,0.5-0.5,0.9-1.1,0.8c-0.5-0.1-0.9-0.5-0.9-1c0.1-0.5,0.5-0.9,1.1-0.8
						C169,244,169.3,244.4,169.3,244.9z"/>
					<path class="st30" d="M169.2,244.8c0,0.2-0.2,0.4-0.5,0.4c-0.3,0-0.4-0.2-0.4-0.5c0-0.2,0.2-0.4,0.5-0.4
						C169,244.4,169.2,244.6,169.2,244.8z"/>
				</g>
				<g>
					<path class="st21" d="M173.6,249.3c-0.1,1.2-1.2,2-2.5,1.9c-1.2-0.1-2.2-1.2-2-2.3c0.1-1.2,1.2-2,2.5-1.9
						C172.8,247,173.7,248.1,173.6,249.3z"/>
					<path class="st29" d="M173.2,248.8c-0.1,0.5-0.5,0.9-1.1,0.8c-0.5-0.1-0.9-0.5-0.9-1c0.1-0.5,0.5-0.9,1.1-0.8
						C172.9,247.8,173.3,248.3,173.2,248.8z"/>
					<path class="st30" d="M173.1,248.7c0,0.2-0.2,0.4-0.5,0.4c-0.3,0-0.4-0.2-0.4-0.5c0-0.2,0.2-0.4,0.5-0.4
						C172.9,248.2,173.1,248.4,173.1,248.7z"/>
				</g>
				<g>
					<path class="st21" d="M178.5,252.7c-0.1,1.2-1.2,2-2.5,1.9c-1.2-0.1-2.2-1.2-2-2.3c0.1-1.2,1.2-2,2.5-1.9
						C177.7,250.5,178.6,251.5,178.5,252.7z"/>
					<path class="st29" d="M178.1,252.2c-0.1,0.5-0.5,0.9-1.1,0.8c-0.5-0.1-0.9-0.5-0.9-1c0.1-0.5,0.5-0.9,1.1-0.8
						C177.8,251.2,178.2,251.7,178.1,252.2z"/>
					<path class="st30" d="M178,252.1c0,0.2-0.2,0.4-0.5,0.4c-0.3,0-0.4-0.2-0.4-0.5c0-0.2,0.2-0.4,0.5-0.4
						C177.8,251.6,178,251.8,178,252.1z"/>
				</g>
				<g>
					<path class="st21" d="M184.5,256.1c-0.1,1.2-1.2,2-2.5,1.9c-1.2-0.1-2.2-1.2-2-2.3c0.1-1.2,1.2-2,2.5-1.9
						C183.7,253.9,184.6,255,184.5,256.1z"/>
					<path class="st29" d="M184.2,255.7c-0.1,0.5-0.5,0.9-1.1,0.8c-0.5-0.1-0.9-0.5-0.9-1c0.1-0.5,0.5-0.9,1.1-0.8
						C183.8,254.7,184.2,255.2,184.2,255.7z"/>
					<path class="st30" d="M184,255.5c0,0.2-0.2,0.4-0.5,0.4c-0.3,0-0.4-0.2-0.4-0.5c0-0.2,0.2-0.4,0.5-0.4
						C183.9,255.1,184,255.3,184,255.5z"/>
				</g>
				<g>
					<path class="st21" d="M190.8,258.5c-0.1,1.2-1.2,2-2.5,1.9c-1.2-0.1-2.2-1.2-2-2.3c0.1-1.2,1.2-2,2.5-1.9
						C190.1,256.3,191,257.4,190.8,258.5z"/>
					<path class="st29" d="M190.5,258.1c-0.1,0.5-0.5,0.9-1.1,0.8c-0.5-0.1-0.9-0.5-0.9-1c0.1-0.5,0.5-0.9,1.1-0.8
						C190.2,257.1,190.6,257.6,190.5,258.1z"/>
					<path class="st30" d="M190.4,257.9c0,0.2-0.2,0.4-0.5,0.4c-0.3,0-0.4-0.2-0.4-0.5c0-0.2,0.2-0.4,0.5-0.4
						C190.2,257.5,190.4,257.7,190.4,257.9z"/>
				</g>
				<g>
					<path class="st21" d="M197.6,261.4c-0.1,1.2-1.2,2-2.5,1.9c-1.2-0.1-2.2-1.2-2-2.3c0.1-1.2,1.2-2,2.5-1.9
						C196.9,259.2,197.8,260.2,197.6,261.4z"/>
					<path class="st29" d="M197.3,260.9c-0.1,0.5-0.5,0.9-1.1,0.8c-0.5-0.1-0.9-0.5-0.9-1c0.1-0.5,0.5-0.9,1.1-0.8
						C197,259.9,197.4,260.4,197.3,260.9z"/>
					<path class="st30" d="M197.2,260.8c0,0.2-0.2,0.4-0.5,0.4c-0.3,0-0.4-0.2-0.4-0.5c0-0.2,0.2-0.4,0.5-0.4
						C197,260.3,197.2,260.5,197.2,260.8z"/>
				</g>
				<g>
					<path class="st21" d="M204.4,262.8c-0.1,1.2-1.2,2-2.5,1.9c-1.2-0.1-2.2-1.2-2-2.3c0.1-1.2,1.2-2,2.5-1.9
						C203.6,260.6,204.6,261.6,204.4,262.8z"/>
					<path class="st29" d="M204.1,262.3c-0.1,0.5-0.5,0.9-1.1,0.8c-0.5-0.1-0.9-0.5-0.9-1c0.1-0.5,0.5-0.9,1.1-0.8
						C203.7,261.4,204.1,261.8,204.1,262.3z"/>
					<path class="st30" d="M204,262.2c0,0.2-0.2,0.4-0.5,0.4c-0.3,0-0.4-0.2-0.4-0.5c0-0.2,0.2-0.4,0.5-0.4
						C203.8,261.8,204,262,204,262.2z"/>
				</g>
				<g>
					<path class="st21" d="M211.1,263.8c-0.1,1.2-1.2,2-2.5,1.9c-1.2-0.1-2.2-1.2-2-2.3c0.1-1.2,1.2-2,2.5-1.9
						C210.3,261.6,211.2,262.6,211.1,263.8z"/>
					<path class="st29" d="M210.7,263.3c-0.1,0.5-0.5,0.9-1.1,0.8c-0.5-0.1-0.9-0.5-0.9-1c0.1-0.5,0.5-0.9,1.1-0.8
						C210.4,262.4,210.8,262.8,210.7,263.3z"/>
					<path class="st30" d="M210.6,263.2c0,0.2-0.2,0.4-0.5,0.4c-0.3,0-0.4-0.2-0.4-0.5c0-0.2,0.2-0.4,0.5-0.4
						C210.4,262.8,210.6,263,210.6,263.2z"/>
				</g>
				<g>
					<path class="st21" d="M218,264.3c-0.1,1.2-1.2,2-2.5,1.9c-1.2-0.1-2.2-1.2-2-2.3c0.1-1.2,1.2-2,2.5-1.9
						C217.2,262.1,218.1,263.2,218,264.3z"/>
					<path class="st29" d="M217.6,263.8c-0.1,0.5-0.5,0.9-1.1,0.8c-0.5-0.1-0.9-0.5-0.9-1c0.1-0.5,0.5-0.9,1.1-0.8
						C217.3,262.9,217.7,263.3,217.6,263.8z"/>
					<path class="st30" d="M217.5,263.7c0,0.2-0.2,0.4-0.5,0.4c-0.3,0-0.4-0.2-0.4-0.5c0-0.2,0.2-0.4,0.5-0.4
						C217.3,263.3,217.5,263.5,217.5,263.7z"/>
				</g>
				<g>
					<path class="st21" d="M225.2,263.9c-0.1,1.2-1.2,2-2.5,1.9c-1.2-0.1-2.2-1.2-2-2.3c0.1-1.2,1.2-2,2.5-1.9
						C224.4,261.7,225.3,262.7,225.2,263.9z"/>
					<path class="st29" d="M224.9,263.4c-0.1,0.5-0.5,0.9-1.1,0.8c-0.5-0.1-0.9-0.5-0.9-1c0.1-0.5,0.5-0.9,1.1-0.8
						C224.5,262.5,224.9,262.9,224.9,263.4z"/>
					<path class="st30" d="M224.7,263.3c0,0.2-0.2,0.4-0.5,0.4c-0.3,0-0.4-0.2-0.4-0.5c0-0.2,0.2-0.4,0.5-0.4
						C224.6,262.9,224.8,263.1,224.7,263.3z"/>
				</g>
				<g>
					<path class="st21" d="M232.3,262.8c-0.1,1.2-1.2,2-2.5,1.9c-1.2-0.1-2.2-1.2-2-2.3c0.1-1.2,1.2-2,2.5-1.9
						C231.5,260.6,232.5,261.7,232.3,262.8z"/>
					<path class="st29" d="M232,262.3c-0.1,0.5-0.5,0.9-1.1,0.8c-0.5-0.1-0.9-0.5-0.9-1c0.1-0.5,0.5-0.9,1.1-0.8
						C231.6,261.4,232,261.8,232,262.3z"/>
					<path class="st30" d="M231.9,262.2c0,0.2-0.2,0.4-0.5,0.4c-0.3,0-0.4-0.2-0.4-0.5c0-0.2,0.2-0.4,0.5-0.4
						C231.7,261.8,231.9,262,231.9,262.2z"/>
				</g>
				<g>
					<path class="st21" d="M239.9,261.6c-0.1,1.2-1.2,2-2.5,1.9c-1.2-0.1-2.2-1.2-2-2.3c0.1-1.2,1.2-2,2.5-1.9
						C239.1,259.4,240,260.4,239.9,261.6z"/>
					<path class="st29" d="M239.6,261.1c-0.1,0.5-0.5,0.9-1.1,0.8s-0.9-0.5-0.9-1c0.1-0.5,0.5-0.9,1.1-0.8
						C239.2,260.2,239.6,260.6,239.6,261.1z"/>
					<path class="st30" d="M239.4,261c0,0.2-0.2,0.4-0.5,0.4c-0.3,0-0.4-0.2-0.4-0.5c0-0.2,0.2-0.4,0.5-0.4
						C239.3,260.6,239.5,260.8,239.4,261z"/>
				</g>
				<g>
					<path class="st21" d="M246.6,260.5c-0.1,1.2-1.2,2-2.5,1.9c-1.2-0.1-2.2-1.2-2-2.3c0.1-1.2,1.2-2,2.5-1.9
						C245.8,258.3,246.7,259.3,246.6,260.5z"/>
					<path class="st29" d="M246.2,260c-0.1,0.5-0.5,0.9-1.1,0.8c-0.5-0.1-0.9-0.5-0.9-1c0.1-0.5,0.5-0.9,1.1-0.8
						C245.9,259,246.3,259.5,246.2,260z"/>
					<path class="st30" d="M246.1,259.9c0,0.2-0.2,0.4-0.5,0.4s-0.4-0.2-0.4-0.5c0-0.2,0.2-0.4,0.5-0.4
						C246,259.4,246.1,259.6,246.1,259.9z"/>
				</g>
			</g>
		</g>
	</g>
	<g class="st31">
		<path class="st7" d="M196.5,370.9c-20.9,7.1-42.3,4.5-42.3,4.5l34.5-36.3c-23.6,18.1-54.4,16.3-54.4,16.3
			c9.5-1.7,29.5-35.6,48-70.8c-7,0.3-11.8-0.3-11.8-0.3l25.8-27.2c0-0.1,0.1-0.1,0.1-0.2c-17.9,13.6-41.1,12.2-41.1,12.2
			c7.4-1.3,23.4-28.8,37.8-56.4c-6.4,0.5-11.1-0.1-11.1-0.1l20.2-21.3c-13.8,10.6-31.9,9.6-31.9,9.6c5.5-1,17.2-20.7,28-41.2
			c-4.4,0.2-7.5-0.1-7.5-0.1l15.7-16.6c-10.8,8.3-24.8,7.5-24.8,7.5c5.4-1,13.3-29.1,18.8-51.9c-0.1-0.2-0.1-0.3-0.1-0.3
			s-30.6,67.1-39.8,68.7c0,0,14.1,0.8,24.8-7.5l-15.7,16.6c0,0,3.1,0.4,7.5,0.1c-10.8,20.5-22.5,40.2-28,41.2c0,0,18.1,1.1,31.9-9.6
			l-20.2,21.3c0,0,4.7,0.6,11.1,0.1c-14.4,27.6-30.4,55.1-37.8,56.4c0,0,23.2,1.4,41.1-12.2c0,0.1-0.1,0.1-0.1,0.2l-25.8,27.2
			c0,0,4.8,0.6,11.8,0.3c-18.5,35.2-38.5,69.1-48,70.8c0,0,30.8,1.8,54.4-16.3l-34.5,36.3c0,0,40,5,64.1-16.9
			C196.9,373.6,196.7,372.3,196.5,370.9z"/>
	</g>
	<g>
		<g>
			<path class="st11" d="M459.3,384.9h-1.1c-2,0-3.6-1.6-3.6-3.6v-35c0-2,1.6-3.6,3.6-3.6h1.1c2,0,3.6,1.6,3.6,3.6v35
				C462.8,383.2,461.2,384.9,459.3,384.9z"/>
			<path class="st11" d="M489.3,398.7h-0.2c-2.2,0-4-1.8-4-4v-44.9c0-2.2,1.8-4,4-4h0.2c2.2,0,4,1.8,4,4v44.9
				C493.3,396.9,491.5,398.7,489.3,398.7z"/>
			<path class="st28" d="M457.1,342.9c-1.4,0.5-2.5,1.8-2.5,3.3v35.1c0,1.5,1,2.8,2.5,3.3V342.9z"/>
			<path class="st28" d="M487.4,346.3c-1.3,0.7-2.2,1.9-2.2,3.5v45c0,1.5,0.9,2.8,2.2,3.5V346.3z"/>
			<path class="st11" d="M529.2,384.9h-1.1c-2,0-3.6-1.6-3.6-3.6v-35c0-2,1.6-3.6,3.6-3.6h1.1c2,0,3.6,1.6,3.6,3.6v35
				C532.8,383.2,531.2,384.9,529.2,384.9z"/>
			<path class="st11" d="M559.2,398.7h-0.2c-2.2,0-4-1.8-4-4v-44.9c0-2.2,1.8-4,4-4h0.2c2.2,0,4,1.8,4,4v44.9
				C563.2,396.9,561.4,398.7,559.2,398.7z"/>
			<ellipse class="st11" cx="508.9" cy="347.9" rx="70.5" ry="11.7"/>
			<ellipse class="st28" cx="509.2" cy="344.9" rx="67.8" ry="8.7"/>
		</g>
		<path class="st32" d="M484.2,341.8c0,0-5.7,7.8,23.7,7.1c0,0,27.8,1.2,26.6-7.1H484.2z"/>
		<polygon class="st32" points="537.7,343.4 563.2,349.8 574,348 550.4,343.4 		"/>
		<g>
			<g>
				<ellipse class="st3" cx="509.4" cy="341.8" rx="25.2" ry="4.7"/>
				<path class="st33" d="M534.3,341.1c0,2.2-11.1,4-24.8,4s-24.8-1.8-24.8-4c0-2.2,11.1-4,24.8-4S534.3,338.9,534.3,341.1z"/>
			</g>
			<g>
				<path class="st8" d="M514.8,341.5c0,1.4-4.1,2.6-9.2,2.6c-5.1,0-9.2-1.2-9.2-2.6c0-1.4,4.1-2.6,9.2-2.6
					C510.7,338.9,514.8,340.1,514.8,341.5z"/>
				<path class="st3" d="M501.5,340.3c0,0.3-0.2,0.5-0.5,0.5c-0.3,0-0.5-0.2-0.5-0.5s0.2-0.5,0.5-0.5
					C501.3,339.8,501.5,340,501.5,340.3z"/>
				<path class="st3" d="M503.9,342.4c0,0.3-0.2,0.5-0.5,0.5c-0.3,0-0.5-0.2-0.5-0.5c0-0.3,0.2-0.5,0.5-0.5
					C503.7,342,503.9,342.2,503.9,342.4z"/>
				<path class="st3" d="M507.5,340.3c0,0.3-0.2,0.5-0.5,0.5c-0.3,0-0.5-0.2-0.5-0.5c0-0.3,0.2-0.5,0.5-0.5
					C507.3,339.9,507.5,340.1,507.5,340.3z"/>
				<path class="st3" d="M512.1,340.2c0,0.3-0.2,0.5-0.5,0.5s-0.5-0.2-0.5-0.5s0.2-0.5,0.5-0.5S512.1,339.9,512.1,340.2z"/>
			</g>
			<g>
				<path class="st8" d="M526.4,342.6c-0.4,1.4-4.7,1.2-9.6-0.4c-4.8-1.6-8.4-4-7.9-5.3c0.4-1.4,4.7-1.2,9.6,0.4
					C523.3,338.8,526.8,341.2,526.4,342.6z"/>
				<path class="st3" d="M514.1,337.2c-0.1,0.2-0.3,0.4-0.6,0.3c-0.2-0.1-0.4-0.3-0.3-0.6c0.1-0.2,0.3-0.4,0.6-0.3
					C514,336.7,514.1,337,514.1,337.2z"/>
				<path class="st3" d="M515.7,340c-0.1,0.2-0.3,0.4-0.6,0.3c-0.2-0.1-0.4-0.3-0.3-0.6c0.1-0.2,0.3-0.4,0.6-0.3
					C515.6,339.5,515.7,339.8,515.7,340z"/>
				<path class="st3" d="M519.7,339.1c-0.1,0.2-0.3,0.4-0.6,0.3c-0.2-0.1-0.4-0.3-0.3-0.6c0.1-0.2,0.3-0.4,0.6-0.3
					C519.7,338.6,519.8,338.9,519.7,339.1z"/>
				<path class="st3" d="M524.2,340.5c-0.1,0.2-0.3,0.4-0.6,0.3c-0.2-0.1-0.4-0.3-0.3-0.6c0.1-0.2,0.3-0.4,0.6-0.3
					S524.3,340.2,524.2,340.5z"/>
			</g>
			<g>
				<polygon class="st6" points="550.4,343.4 537.7,343.4 534,311.5 552.9,311.5 				"/>
				<path class="st6" d="M549.4,334.8c-2.7,2.8-6.3,2.3-8.7-0.4c-5.3-6-5.3-15.4-5.3-23H534l3.7,31.9h12.7l0.9-11.1
					C550.8,333.2,550.1,334,549.4,334.8z"/>
				<path class="st33" d="M536.2,318.6l2.8,22h9.9l2.2-21.7C551,318.9,539.6,316.7,536.2,318.6z"/>
			</g>
		</g>
	</g>
	<g>
		<g>
			<rect x="130.6" y="322.4" class="st23" width="41.9" height="79.6"/>
			<g>
				<defs>
					<rect id="SVGID_1_" x="130.7" y="322.4" width="41.7" height="79.6"/>
				</defs>
				<clipPath id="SVGID_2_">
					<use xlink:href="#SVGID_1_"  style="overflow:visible;"/>
				</clipPath>
				<path class="st34" d="M119.6,343.2c1.8,0,52-13.9,62-20.6"/>
				<path class="st34" d="M129.7,410.7c1.8,0,52-13.9,62-20.6"/>
				<path class="st34" d="M117.8,332.7c1.8,0,52-13.9,62-20.6"/>
				<path class="st34" d="M119.6,355.2c1.8,0,52-13.9,62-20.6"/>
				<path class="st34" d="M119.6,367.1c1.8,0,52-13.9,62-20.6"/>
				<path class="st34" d="M119.6,379.1c1.8,0,52-13.9,62-20.6"/>
				<path class="st34" d="M119.6,391.1c1.8,0,52-13.9,62-20.6"/>
				<path class="st34" d="M119.6,403c1.8,0,52-13.9,62-20.6"/>
			</g>
			<rect x="130.6" y="322.4" class="st7" width="36.8" height="79.6"/>
			<rect x="124.8" y="318.3" class="st21" width="51.6" height="9.1"/>
			<rect x="124.8" y="318.2" class="st7" width="46.6" height="9.2"/>
		</g>
		<g>
			<path class="st12" d="M197.5,346.8c-4.6-2.8-7.1,3.1-8.3,8c-0.1-4.8-1.3-10.4-6.3-9.2c-8.5,2,3,16.4,3,16.4l3-1c0,0,0,0,0,0
				l2.1,1C190.9,362,204.9,351.3,197.5,346.8z"/>
			<path class="st12" d="M197.5,346.8c-4.6-2.8-7.1,3.1-8.3,8c-0.1-4.8-1.3-10.4-6.3-9.2c-8.5,2,3,16.4,3,16.4l3-1c0,0,0,0,0,0
				l2.1,1C190.9,362,204.9,351.3,197.5,346.8z"/>
			<path class="st7" d="M188.9,361l1.1,0.5c2.1-2.2,4.1-4.4,5.6-7c0.8-1.4,2.9-5.1,1.9-6.7c-0.4-0.6-1.8-1.2-2.8-1.6
				c-2.8,0.6-4.5,4.9-5.4,8.7c-0.1-4.8-1.3-10.4-6.3-9.2c-8.5,2,3,16.4,3,16.4L188.9,361C188.8,361,188.9,361,188.9,361z"/>
			<rect x="162.8" y="363.3" class="st21" width="52.6" height="53.8"/>
			<rect x="187.1" y="371.3" class="st12" width="4.1" height="45.6"/>
			<rect x="159.6" y="360.7" class="st2" width="59" height="10.5"/>
			<rect x="159.6" y="360.8" class="st35" width="59" height="2.6"/>
			<rect x="162.8" y="371.3" class="st36" width="49.2" height="45.7"/>
			<polygon class="st37" points="174.7,387.9 171.6,384.8 167.3,385.7 169.2,381.8 167,378 171.4,378.6 174.3,375.4 175.1,379.7 
				179.1,381.5 175.2,383.5 			"/>
			<polygon class="st37" points="205.5,407.5 203,405.1 199.7,405.8 201.2,402.8 199.5,399.8 202.9,400.3 205.2,397.8 205.8,401.1 
				208.9,402.5 205.8,404.1 			"/>
			<polygon class="st37" points="182.4,404.3 179.1,404.7 177.5,407.7 176.1,404.7 172.7,404.1 175.2,401.8 174.7,398.4 
				177.6,400.1 180.7,398.5 180.1,401.9 			"/>
			<polygon class="st37" points="205.9,384.8 202.5,385.2 201,388.3 199.5,385.2 196.1,384.6 198.6,382.3 198.1,378.9 201.1,380.6 
				204.1,379.1 203.5,382.4 			"/>
		</g>
	</g>
	<g>
		
			<ellipse transform="matrix(0.7071 -0.7071 0.7071 0.7071 -105.1778 337.2783)" class="st24" cx="354.5" cy="295.6" rx="87.9" ry="87.9"/>
		
			<ellipse transform="matrix(0.7071 -0.7071 0.7071 0.7071 -105.1778 337.2783)" class="st24" cx="354.5" cy="295.6" rx="72" ry="72"/>
		
			<ellipse transform="matrix(0.1576 -0.9875 0.9875 0.1576 6.7547 599.1182)" class="st24" cx="354.5" cy="295.6" rx="52.2" ry="52.2"/>
	</g>
	<g>
		<g>
			<g>
				<path class="st21" d="M481.3,352.8c0,0-5-13.8-1.3-9.4c3.8,4.4,5,7.6,9.4,8.2c4.4,0.6,27.7,0.6,33.4,6.9c0,0,10.4-8.3,10.7-5
					c0.3,3.2-6.3,9.4-6.3,9.4s-1.9,44.1-7.6,50.4l-5.7,4.4c0,0-1.9-2.5-1.3-4.4c0.6-1.9-24.5-5-40.3-7.6c0,0-5,1.9-6.9,1.9
					c-1.9,0,1.9-4.4,5-5.7C473.7,400.6,475.6,357.2,481.3,352.8z"/>
				<path class="st38" d="M475.4,406c0,0-3.1-1.5-1.7-6.3c1.3-4.8,5.1-43.3,10.1-45.2c5-1.9,28.2,0.7,37.3,5.4c0,0,1.6,1.6,3.6,0.3
					c2-1.3,8.8-7.9,8.8-6.7s-0.5,4.3-6.3,9.4c0,0-1.7,42.7-7.6,50.4c0,0-5.3,4.4-5.7,4.4c0,0-1.3-2.7-1.3-4.4
					C512.7,411.5,475.4,406,475.4,406z"/>
				<path class="st2" d="M485.9,366.5c0,0.6-0.5,1.1-1.1,1.1c-0.6,0-1.1-0.5-1.1-1.1c0-0.6,0.5-1.1,1.1-1.1
					C485.4,365.5,485.9,365.9,485.9,366.5z"/>
				<path class="st2" d="M514.6,370.4c0,0.6-0.5,1.1-1.1,1.1c-0.6,0-1.1-0.5-1.1-1.1c0-0.6,0.5-1.1,1.1-1.1
					C514.1,369.4,514.6,369.8,514.6,370.4z"/>
				<path class="st2" d="M481.7,396.5c0,0.6-0.5,1.1-1.1,1.1c-0.6,0-1.1-0.5-1.1-1.1c0-0.6,0.5-1.1,1.1-1.1
					C481.3,395.4,481.7,395.9,481.7,396.5z"/>
				<path class="st2" d="M510.2,400.9c0,0.6-0.5,1.1-1.1,1.1c-0.6,0-1.1-0.5-1.1-1.1c0-0.6,0.5-1.1,1.1-1.1
					C509.7,399.8,510.2,400.3,510.2,400.9z"/>
			</g>
			<g>
				<path class="st25" d="M526.7,430.9c0,0-9.9,10.9-7.8,5.5c2.1-5.4,4.3-8,2.8-12.2c-1.5-4.2-12.4-24.8-9.5-32.7
					c0,0-12.2-5.3-9.5-7.1c2.7-1.8,11.3,1.1,11.3,1.1s39.8-18.9,48-16.9l4.6-2.3c0,0,0.6,8.1-1.3,8.4c-2,0.3,7,24.1,12.2,39.1
					c0,0,4,3.6,4.9,5.2c0.9,1.7-4.8,0.4-7.4-1.8C572.5,415.2,533.2,433.8,526.7,430.9z"/>
				<path class="st38" d="M576.4,411.2c0,0,0.1,3.4-4.8,4.5c-4.9,1.1-40.7,15.8-44.7,12.3c-4-3.5-12.6-25.2-12.7-35.5
					c0,0,0.7-2.2-1.5-3.3c-2.1-1.2-11.1-4.1-10-4.7c1.1-0.6,4.1-1.5,11.3,1.1c0,0,38.6-18.5,48-16.9c0,0,4.4-2.6,4.6-2.3
					c0,0,0.2,7.6-1.3,8.4S576.4,411.2,576.4,411.2z"/>
				<path class="st2" d="M536.6,420.4c0.5-0.3,1.2-0.1,1.5,0.4c0.3,0.5,0.1,1.2-0.4,1.5c-0.5,0.3-1.2,0.1-1.5-0.4
					C535.9,421.3,536.1,420.7,536.6,420.4z"/>
				<path class="st2" d="M526.6,393.2c0.5-0.3,1.2-0.1,1.5,0.4c0.3,0.5,0.1,1.2-0.4,1.5c-0.5,0.3-1.2,0.1-1.5-0.4
					C525.9,394.1,526.1,393.5,526.6,393.2z"/>
				<path class="st2" d="M565,410.1c0.5-0.3,1.2-0.1,1.5,0.4c0.3,0.5,0.1,1.2-0.4,1.5c-0.5,0.3-1.2,0.1-1.5-0.4
					C564.3,411,564.5,410.3,565,410.1z"/>
				<path class="st2" d="M555.6,382.9c0.5-0.3,1.2-0.1,1.5,0.4c0.3,0.5,0.1,1.2-0.4,1.5c-0.5,0.3-1.2,0.1-1.5-0.4
					C554.9,383.8,555.1,383.1,555.6,382.9z"/>
			</g>
		</g>
	</g>
	<path class="st39" d="M105.5,500h499.7L423.6,370.8H289.7C289.7,370.8,105.7,500,105.5,500z"/>
	<g class="st40">
		<polygon class="st2" points="471.1,402.4 241.7,400.9 252.3,394.8 282.5,394.9 312.8,370.4 318,370.4 291.2,395 328.1,395.1 
			339.9,370.3 345.2,370.3 337,395.2 374.9,395.3 367.4,370.2 372.7,370.2 384.2,395.4 423.2,395.6 395.3,370.1 400.8,370.1 
			432.7,395.6 459.8,395.7 		"/>
	</g>
	<polygon class="st41" points="353,377.1 336.3,418.3 472.8,418 416.3,374.4 	"/>
	<g class="st13">
		<g class="st42">
			
				<ellipse transform="matrix(0.9991 -4.235781e-02 4.235781e-02 0.9991 -14.8144 17.0507)" class="st8" cx="395" cy="358.1" rx="25.6" ry="24"/>
			
				<ellipse transform="matrix(0.9685 -0.2491 0.2491 0.9685 -79.0826 103.7072)" class="st8" cx="370.2" cy="364.3" rx="18.7" ry="17.6"/>
			<path class="st8" d="M388.5,368.2c0,0-5.1,8.2-17.8,10c-12.7,1.7,5.4,11.6,18.3,3.5C389,381.7,401.3,362.6,388.5,368.2z"/>
			<path class="st43" d="M373.8,381.3c0-1-0.1-2.5-0.1-3.7c-0.9,0.2-1.9,0.4-2.9,0.5c-8,1.1-3.8,5.4,3.5,6.4
				C373.9,383.5,373.8,382.4,373.8,381.3z"/>
			<path class="st8" d="M364,377c-4.1,1.1-8.5-2.5-11.5-7.8c0,0,0,0,0,0c-4.4,12.1,10.7,16,14.4,15.3c3.6-0.7,0.3-7,0.3-7
				C366.1,377.4,365.1,377.3,364,377z"/>
			<path class="st43" d="M367.2,377.9c-1.3,0-2.5-0.2-3.7-0.6c0,2.4,0,4.7-0.2,6.9c1.5,0.3,2.9,0.3,3.6,0.2
				C370.5,383.8,367.2,377.9,367.2,377.9z"/>
			<path class="st8" d="M403.3,354c0,0-14.8,6.4-3.5,23.2c0,0-11.1,0.5-11.4,2.5c-0.3,2-0.7,4.7,2.5,4.7c3.2,0,22.4-1,24.1-3.2
				c1.7-2.2,11.1-23.3,1.6-35.1C416.7,346.1,402.4,349.6,403.3,354z"/>
			<path class="st43" d="M392.3,378.6c0,0,2.2,1.7,1.1,5.7c0,0-5.3,1.5-5.3-1.9C388.2,378.9,391.6,378.6,392.3,378.6z"/>
			<g class="st44">
				<path class="st11" d="M388.4,383.4c-0.1,0-0.2-0.1-0.2-0.2c0-0.1-0.4-1.9,0.5-3.3c0.5-0.8,1.4-1.2,2.5-1.4l6-1.3
					c-0.7-1.4-3.8-8.8-0.9-15.2c2.1-4.4,6.6-7.5,13.6-9c0.1,0,0.2,0,0.2,0.2c0,0.1,0,0.2-0.2,0.2c-6.8,1.5-11.3,4.4-13.3,8.8
					c-3.2,6.9,0.9,15,1,15l0.1,0.2l-6.5,1.4c-1,0.1-1.8,0.6-2.2,1.2c-0.9,1.2-0.5,3-0.5,3C388.6,383.3,388.5,383.4,388.4,383.4
					C388.4,383.4,388.4,383.4,388.4,383.4z"/>
			</g>
			<path class="st8" d="M352.8,359.4c0,0-5.5-10.4-2.6-11.6c2.8-1.2,9,4.1,9,4.1S354.7,360.9,352.8,359.4z"/>
			<path class="st8" d="M370.7,349.6c0,0-1.9-10.1,1.2-11c3.1-0.9,8,8.9,8,8.9S371.3,351.6,370.7,349.6z"/>
			<path class="st11" d="M372.9,365c0,0,3.5-2.5,5.5-1.5c0,0,0.3,2.7-0.9,3.8C376.2,368.5,373.2,367.7,372.9,365z"/>
			<path class="st45" d="M366.6,371c0,0,8.9,2,10.1-3.1c0,0,6.2,2.4,8.1-3.6"/>
			<path class="st46" d="M368.9,364.2c0,0-0.9,2.1-5.5,2"/>
			<path class="st47" d="M382.8,358.2c0,0-0.7,2.1-4.4,2"/>
			<path class="st48" d="M355,372.6c0,0,6.3,5.7,15.6,5.5c0,0,14.3-0.1,17-8.5c0,0,6.1-13.7-8.2-23.6c0,0-2-4.4-2.5-4.6"/>
			<path class="st49" d="M383.5,336.7c0,0,5.7,2.5,7.4,8.7c0,0,1.2-6.3-1.7-10.9L383.5,336.7z"/>
			<path class="st49" d="M394.6,333.9c0,0,3.3,5.4,3.1,10.1c0,0,5.4-9.7,2.6-9.8C394.6,333.9,394.7,333.2,394.6,333.9z"/>
			<path class="st49" d="M405.8,336.1c0,0-0.6,6.1-1.8,8c0,0,5.3-1.1,6.6-5.3C410.6,338.8,406.7,336.1,405.8,336.1z"/>
			<path class="st43" d="M354.2,356.5c0,0-3.9-6.5-2.3-6.6c1.6-0.1,5.5,2.5,5.5,2.5S354.1,355.7,354.2,356.5z"/>
			<path class="st43" d="M373,346.7c0,0-1.5-6.6-0.3-6.3c1.3,0.3,4,5.8,4,5.8L373,346.7z"/>
		</g>
		<g class="st50">
			<path class="st12" d="M353.7,370.9c0,0-3-6.7-0.1-11.1c0,0-4.9-9.7-3.6-12.1c-2.5,1,1.4,9.1,2.4,11.1c-1.2,3.1-1.4,6.6-0.6,10
				c0.1,0.3,0.1,0.5,0.2,0.8c-2,6.2,1.3,10.2,5.3,12.4C355.2,379.7,351.8,375.3,353.7,370.9z"/>
			<path class="st12" d="M371.3,348.2c0,0-0.1-10.1,1.2-9.6c1.3,0.5,5.4,4.6,5.4,4.6s8.8-8.1,18.7-7.4c9.8,0.6,20.9,8.6,23.4,18.4
				c0.1,0,0.1,0,0.2,0c-0.1-0.6-0.3-1.3-0.4-1.9c-1.4-5.5-4.8-10.2-9.4-13.5c0-0.1,0-0.1,0.1-0.2c0,0-3.9-2.7-4.8-2.7
				c0,0,0,0.1,0,0.2c-1.5-0.7-3.1-1.2-4.8-1.5c-0.1-0.3-0.3-0.5-0.7-0.5c-5.8-0.3-5.6-1-5.8-0.3c0,0,0,0.1,0.1,0.2
				c-0.2,0-0.5,0-0.7,0c-1.6,0.1-3.1,0.3-4.6,0.6c0-0.1-0.1-0.1-0.1-0.2l-1.7,0.7c-4.3,1.3-8.1,3.5-11.1,6.5
				c-1.5-1.9-3.1-3.5-4.5-3.1c-2,0.6-1.9,5.1-1.6,8.1c-1.5,0-3,0.2-4.4,0.6c-2.9,0.7-5.5,2.1-7.6,3.9
				C358,351,368.8,346.7,371.3,348.2z"/>
			<path class="st12" d="M358,351c-6.4-5.6-8-3.3-8-3.3C352.1,346.7,356.2,349.5,358,351z"/>
		</g>
		<g class="st42">
			<g>
				<path class="st8" d="M384.9,389.7c5.5,0.4,10.9,0.5,16.4,0.1c2.7-0.2,5.5-0.5,8.2-0.9c2.3-0.3,4.7-0.8,6.9-1.7
					c9.7-4,9.7-16.1,8.5-25c-0.3-2.3-0.9-4.7-2.3-6.6c-0.7-1-1.6-1.8-2.6-2.6c-0.6-0.4-1.6-1-1.6-1.8c0.2-2.6-3.8-2.5-4,0
					c-0.2,2.2,1.4,3.6,3,4.8c1.4,1.1,2.4,2.2,2.9,3.9c0.6,1.8,0.8,3.7,0.9,5.6c0.1,2.4,0.3,4.8,0.1,7.3c-0.3,4-1.8,8.3-5.5,10.3
					c-1.9,1-4.1,1.4-6.2,1.7c-2.4,0.4-4.9,0.7-7.3,0.9c-5.8,0.5-11.6,0.5-17.4,0C382.4,385.6,382.4,389.5,384.9,389.7L384.9,389.7z"
					/>
			</g>
		</g>
	</g>
	<polygon class="st23" points="201.5,85.6 204.7,92.1 211.8,93.1 206.7,98.1 207.9,105.2 201.5,101.9 195.2,105.2 196.4,98.1 
		191.2,93.1 198.3,92.1 	"/>
</g>
</svg>
