<?xml version="1.0" encoding="utf-8"?>
<!-- Generator: Adobe Illustrator 24.0.0, SVG Export Plug-In . SVG Version: 6.00 Build 0)  -->
<svg version="1.1" id="Layer_1" xmlns="http://www.w3.org/2000/svg" xmlns:xlink="http://www.w3.org/1999/xlink" x="0px" y="0px"
	 viewBox="0 0 500 166.4" style="enable-background:new 0 0 500 166.4;" xml:space="preserve">
<style type="text/css">
	.st0{fill:#6B3020;}
	.st1{opacity:0.1;fill:#FFFFFF;}
</style>
<polygon class="st0" points="500,0 0,0 0,19.8 76.6,19.8 76.6,166.4 98.5,166.4 98.5,19.8 189.8,19.8 189.8,166.4 211.7,166.4 
	211.7,19.8 302.9,19.8 302.9,166.4 324.8,166.4 324.8,19.8 416.1,19.8 416.1,166.4 438,166.4 438,19.8 500,19.8 "/>
<g>
	
		<ellipse transform="matrix(0.7071 -0.7071 0.7071 0.7071 26.7336 197.1975)" class="st1" cx="251.4" cy="66.3" rx="441.2" ry="441.2"/>
	
		<ellipse transform="matrix(0.7071 -0.7071 0.7071 0.7071 26.7336 197.1975)" class="st1" cx="251.4" cy="66.3" rx="361.7" ry="361.7"/>
	
		<ellipse transform="matrix(0.7071 -0.7071 0.7071 0.7071 26.7336 197.1975)" class="st1" cx="251.4" cy="66.3" rx="262.2" ry="262.2"/>
</g>
</svg>
