<?xml version="1.0" encoding="utf-8"?>
<!-- Generator: Adobe Illustrator 24.0.0, SVG Export Plug-In . SVG Version: 6.00 Build 0)  -->
<svg version="1.1" id="Layer_1" xmlns="http://www.w3.org/2000/svg" xmlns:xlink="http://www.w3.org/1999/xlink" x="0px" y="0px"
	 viewBox="0 0 500 500" style="enable-background:new 0 0 500 500;" xml:space="preserve">
<style type="text/css">
	.st0{fill:none;stroke:#4A171C;stroke-width:5.9454;stroke-linecap:round;stroke-linejoin:round;stroke-miterlimit:10;}
	.st1{fill:#4A171C;}
	.st2{fill:#C24134;}
	.st3{fill:#F1D2BB;}
	.st4{fill:none;stroke:#841913;stroke-width:2.7593;stroke-linecap:round;stroke-linejoin:round;stroke-miterlimit:10;}
</style>
<g>
	<g>
		<path class="st0" d="M302.4,61.6c0,0-23.1-40.3-5.3-54.2S302.4,61.6,302.4,61.6z"/>
		<g>
			<g>
				<g>
					<path class="st1" d="M134.9,116c27.8-20.9,61.2-32.9,94-44.5c16-5.7,58.7-15.9,76-18.4c0,0-27,21.9-81.5,37.1L134.9,116z"/>
					<g>
						<path class="st2" d="M186.6,211.5c7.7,28.7,16.4,60.7,24.1,89.5c0.9,3.2,1.7,6.5,1.4,9.8c-0.4,3.6-2.3,6.9-4.1,10.1
							c-4.3,7.7-8.6,15.5-12.7,23.4c-12.7,24.3-24.3,50.2-24.2,77.6c0.1,27.4,15.1,56.5,41.1,64.9c5.9,1.9,12.1,2.7,18.4,2.9
							c23.5,0.8,47.2-7.1,65.6-21.8c38.7-30.9,49.2-84.7,76.4-126.1c5.7-8.6,12.3-17.1,14.6-27.1c2.9-12.6-1.4-25.6-5.7-37.8
							c-12.1-34-27.8-90.4-49.7-132.1L186.6,211.5z"/>
						<path class="st3" d="M132.5,126.5c3.1,26.8,11.5,53,24.7,76.5c1.8,3.2,3.8,6.5,6.9,8.5c3.8,2.4,8.6,2.5,13.2,2.3
							c58.2-2.7,110.8-34.4,157.6-69c2.8-2.1,5.8-4.4,7.2-7.6c1.6-3.8,0.7-8.2-0.2-12.3c-5.5-23.8-12.1-48.2-27.7-67
							c-1.7-2-3.5-4-6-4.6c-3.7-0.9-7.4,1.4-10.6,3.6c-45.2,30.4-100.8,39.9-153.1,55.3c-4.8,1.4-10.3,3.5-11.8,8.3
							C132.1,122.4,132.3,124.5,132.5,126.5z"/>
					</g>
				</g>
			</g>
		</g>
	</g>
	<g>
		<g>
			<path class="st4" d="M191.1,230.1c0,0,92.5-10.3,149.8-66"/>
			<path class="st4" d="M198.1,252.8c0,0,93.3-10.7,150.7-66.3"/>
			<path class="st4" d="M205,274.7c0,0,93.3-10.7,150.7-66.3"/>
			<path class="st4" d="M210.5,298.1c0,0,95.9-13.2,153.2-68.9"/>
			<path class="st4" d="M212,310.8c0,0,43.8-13.6,117-11.7"/>
			<path class="st4" d="M195.9,345.3c31.6-4.9,63.7-2.9,92.6,10.6c5.9,2.8,11.6,6,17.3,9.3c14,8,28.2,15.2,39.2,27"/>
			<path class="st4" d="M207.7,324.8c0,0,77.4-14.5,147.3,44.6"/>
			<path class="st4" d="M178.1,387c31.6-4.9,60.4-2.5,89.3,11.1c5.9,2.8,11.6,6,17.3,9.3c14,8,27.2,15.2,38.3,26.9"/>
			<path class="st4" d="M185.6,367.1c0,0,79.7-14.2,149.7,44.9"/>
		</g>
		<g>
			<path class="st3" d="M172.3,408.1c14.8-6.8,32.1-4.1,47.9-0.1c32.8,8.4,66,23.7,84.7,51.9c0,0-33.3,39.1-88.7,28.6
				c-3.8-0.7-7.5-2.1-10.9-4.1C192.3,477.1,165.1,455.1,172.3,408.1z"/>
			<path class="st3" d="M358.4,365.2c-19.6-15.5-31.7-41.3-29.4-66.1c2.3-24.9,17.9-48.2,40-59.8c0,0,18.9,53,18.8,61.2
				C387.7,308.6,393.6,315,358.4,365.2z"/>
		</g>
	</g>
</g>
</svg>
