<?xml version="1.0" encoding="utf-8"?>
<!-- Generator: Adobe Illustrator 24.0.0, SVG Export Plug-In . SVG Version: 6.00 Build 0)  -->
<svg version="1.1" id="Layer_1" xmlns="http://www.w3.org/2000/svg" xmlns:xlink="http://www.w3.org/1999/xlink" x="0px" y="0px"
	 viewBox="0 0 500 500" style="enable-background:new 0 0 500 500;" xml:space="preserve">
<style type="text/css">
	.st0{display:none;}
	.st1{display:inline;}
	.st2{fill:none;stroke:#4A171C;stroke-width:5.9454;stroke-linecap:round;stroke-linejoin:round;stroke-miterlimit:10;}
	.st3{fill:#4A171C;}
	.st4{fill:#C24134;}
	.st5{fill:#F1D2BB;}
	.st6{fill:none;stroke:#841913;stroke-width:2.7593;stroke-linecap:round;stroke-linejoin:round;stroke-miterlimit:10;}
	
		.st7{display:inline;fill:none;stroke:#4A171C;stroke-width:6.0132;stroke-linecap:round;stroke-linejoin:round;stroke-miterlimit:10;}
	.st8{fill:#734A46;}
	.st9{fill:none;stroke:#DD8E56;stroke-width:2.3256;stroke-linecap:round;stroke-linejoin:round;stroke-miterlimit:10;}
	.st10{fill:none;stroke:#DD8E56;stroke-width:2.3256;stroke-miterlimit:10;}
	.st11{fill:none;stroke:#4A171C;stroke-width:2.3256;stroke-linecap:round;stroke-linejoin:round;stroke-miterlimit:10;}
	.st12{fill:none;stroke:#4A171C;stroke-width:5.9977;stroke-linecap:round;stroke-linejoin:round;stroke-miterlimit:10;}
	.st13{fill:#F9EDE4;}
	.st14{clip-path:url(#SVGID_1_);}
	.st15{fill:#BF2F27;}
	.st16{fill:#007F27;}
</style>
<g class="st0">
	<g class="st1">
		<path class="st2" d="M362.7,63.4c0,0-23.1-40.3-5.3-54.2S362.7,63.4,362.7,63.4z"/>
		<g>
			<g>
				<g>
					<path class="st3" d="M195.2,117.8c27.8-20.9,61.2-32.9,94-44.5c16-5.7,58.7-15.9,76-18.4c0,0-27,21.9-81.5,37.1L195.2,117.8z"
						/>
					<g>
						<path class="st4" d="M246.8,213.3c7.7,28.7,16.4,60.7,24.1,89.5c0.9,3.2,1.7,6.5,1.4,9.8c-0.4,3.6-2.3,6.9-4.1,10.1
							c-4.3,7.7-8.6,15.5-12.7,23.4c-12.7,24.3-24.3,50.2-24.2,77.6c0.1,27.4,15.1,56.5,41.1,64.9c5.9,1.9,12.1,2.7,18.4,2.9
							c23.5,0.8,47.2-7.1,65.6-21.8c38.7-30.9,49.2-84.7,76.4-126.1c5.7-8.6,12.3-17.1,14.6-27.1c2.9-12.6-1.4-25.6-5.7-37.8
							c-12.1-34-27.8-90.4-49.7-132.1L246.8,213.3z"/>
						<path class="st5" d="M192.8,128.3c3.1,26.8,11.5,53,24.7,76.5c1.8,3.2,3.8,6.5,6.9,8.5c3.8,2.4,8.6,2.5,13.2,2.3
							c58.2-2.7,110.8-34.4,157.6-69c2.8-2.1,5.8-4.4,7.2-7.6c1.6-3.8,0.7-8.2-0.2-12.3c-5.5-23.8-12.1-48.2-27.7-67
							c-1.7-2-3.5-4-6-4.6c-3.7-0.9-7.4,1.4-10.6,3.6C312.6,89,257,98.5,204.7,113.9c-4.8,1.4-10.3,3.5-11.8,8.3
							C192.4,124.2,192.5,126.3,192.8,128.3z"/>
					</g>
				</g>
			</g>
		</g>
	</g>
	<g class="st1">
		<g>
			<path class="st6" d="M251.3,231.8c0,0,92.5-10.3,149.8-66"/>
			<path class="st6" d="M258.4,254.6c0,0,93.3-10.7,150.7-66.3"/>
			<path class="st6" d="M265.3,276.5c0,0,93.3-10.7,150.7-66.3"/>
			<path class="st6" d="M270.7,299.9c0,0,95.9-13.2,153.2-68.9"/>
			<path class="st6" d="M272.3,312.6c0,0,43.8-13.6,117-11.7"/>
			<path class="st6" d="M256.2,347.1c31.6-4.9,63.7-2.9,92.6,10.6c5.9,2.8,11.6,6,17.3,9.3c14,8,28.2,15.2,39.2,27"/>
			<path class="st6" d="M267.9,326.6c0,0,77.4-14.5,147.3,44.6"/>
			<path class="st6" d="M238.3,388.8c31.6-4.9,60.4-2.5,89.3,11.1c5.9,2.8,11.6,6,17.3,9.3c14,8,27.2,15.2,38.3,26.9"/>
			<path class="st6" d="M245.9,368.9c0,0,79.7-14.2,149.7,44.9"/>
		</g>
		<g>
			<path class="st5" d="M232.6,409.9c14.8-6.8,32.1-4.1,47.9-0.1c32.8,8.4,66,23.7,84.7,51.9c0,0-33.3,39.1-88.7,28.6
				c-3.8-0.7-7.5-2.1-10.9-4.1C252.5,478.9,225.4,456.9,232.6,409.9z"/>
			<path class="st5" d="M418.7,367c-19.6-15.5-31.7-41.3-29.4-66.1c2.3-24.9,17.9-48.2,40-59.8c0,0,18.9,53,18.8,61.2
				C447.9,310.4,453.8,316.8,418.7,367z"/>
		</g>
	</g>
</g>
<g class="st0">
	<path class="st7" d="M294,62.8c0,0-23.4-40.8-5.3-54.8C306.7-6,294,62.8,294,62.8z"/>
	<g class="st1">
		<g>
			<g>
				<path class="st3" d="M124.6,117.8c28.1-21.2,61.9-33.3,95.1-45c16.2-5.8,59.4-16.1,76.9-18.6c0,0-27.3,22.2-82.4,37.5
					L124.6,117.8z"/>
				<g>
					<path class="st8" d="M176.8,214.4c7.8,29.1,16.6,61.4,24.4,90.5c0.9,3.2,1.7,6.6,1.4,9.9c-0.4,3.7-2.3,7-4.1,10.2
						c-4.4,7.8-8.7,15.7-12.8,23.7c-12.8,24.6-24.6,50.8-24.5,78.5c0.1,27.7,15.3,57.1,41.6,65.6c6,1.9,12.3,2.7,18.6,2.9
						c23.8,0.8,47.8-7.2,66.4-22c39.2-31.2,49.7-85.7,77.3-127.5c5.7-8.7,12.4-17.3,14.8-27.4c2.9-12.7-1.4-25.9-5.8-38.2
						c-12.2-34.4-28.1-91.5-50.2-133.6L176.8,214.4z"/>
					<path class="st5" d="M122.1,128.4c3.1,27.1,11.7,53.6,25,77.4c1.8,3.3,3.9,6.6,7,8.6c3.9,2.5,8.7,2.5,13.3,2.3
						c58.8-2.7,112-34.8,159.4-69.8c2.9-2.1,5.9-4.4,7.3-7.7c1.7-3.9,0.8-8.3-0.2-12.5c-5.5-24-12.2-48.8-28-67.7
						c-1.7-2-3.6-4-6.1-4.7c-3.8-1-7.5,1.4-10.7,3.6c-45.8,30.8-101.9,40.4-154.8,55.9c-4.9,1.4-10.4,3.6-11.9,8.4
						C121.7,124.3,121.9,126.4,122.1,128.4z"/>
				</g>
			</g>
			<g>
				<path class="st9" d="M213.3,309c1.3,0.7,3.1,0.2,4.1-0.9c1-1.1,1.3-2.7,1-4.2c-0.2-1.1-0.8-2.2-1.8-2.6
					c-1.1-0.4-2.3,0.2-3.1,0.9c-1,0.9-1.8,2.1-1.9,3.4C211.4,307,212.1,308.4,213.3,309z"/>
				<path class="st9" d="M243.7,301.6c1.7,0.6,3.7,0,4.8-1.4c1.1-1.4,1.1-3.5,0.1-5c-1.7-2.3-5.8-2-7.1,0.5
					C240.3,297.8,241.5,300.8,243.7,301.6z"/>
				<path class="st9" d="M279.4,292.1c0.1-1.5,0-3.1-0.8-4.3s-2.5-2.1-3.8-1.5c-1.1,0.5-1.7,1.8-2.2,2.9c-0.6,1.6-1.2,3.7,0,4.9
					c0.7,0.7,1.8,0.8,2.7,0.9c1.1,0.1,2.3,0.2,3.1-0.5C279.2,294,279.4,293,279.4,292.1z"/>
				<path class="st9" d="M301.1,284.7c0.4,2.3,2.4,4.5,4.6,4.1c1.3-0.2,2.4-1.3,2.8-2.6c0.4-1.3,0.1-2.7-0.6-3.9
					c-1.1-1.9-3.9-3-5.6-1.6C301.1,281.6,300.8,283.2,301.1,284.7z"/>
			</g>
			<g>
				<g>
					<g>
						<g>
							<path class="st9" d="M209.8,289c4.7-10.2,10.3-20.1,16.7-29.4"/>
							<path class="st9" d="M215.3,289.4c2.7-4.5,5.4-9,8.1-13.4c3.6-6,7.3-12,10.5-18.3"/>
						</g>
						<g>
							<path class="st9" d="M243,285c6.1-12,12.1-24.1,18.2-36.1"/>
							<path class="st9" d="M252.2,283.2c-0.3,0.2-0.4-0.4-0.3-0.7c6-12.7,12.3-25.2,19.1-37.5"/>
						</g>
						<g>
							<path class="st9" d="M285.3,272.7c5.1-14.5,10.8-28.8,17.2-42.8"/>
							<path class="st9" d="M294.1,269.3c5.1-14.6,11-29,17.5-43"/>
						</g>
						<g>
							<path class="st9" d="M329.4,254.3c5.9-15,11.8-30,17.8-45"/>
							<path class="st9" d="M338.8,249.2c3.7-11.3,7.9-22.4,12.5-33.3"/>
						</g>
					</g>
					<g>
						<path class="st9" d="M202.3,276.8c0,0.8,0.1,1.6,0.4,2.3c1,0.6,2.5-0.3,2.4-1.4c-0.1-1.1-1.6-1.9-2.6-1.2
							c0.1,0.5,0.2,0.9,0.3,1.4"/>
						<path class="st9" d="M237.4,270.8c-0.1,0.9,0.7,1.8,1.6,1.7c0.9-0.1,1.6-1.1,1.3-2c-0.3-0.8-1.5-1.3-2.2-0.8
							c-0.8,0.5-0.9,1.7-0.2,2.3"/>
						<path class="st9" d="M277.2,260c0.4,0.5,1.1,0.7,1.7,0.4c0.4-1,0.4-2.1,0.2-3.1c-0.9,0.2-1.7,0.4-2.6,0.6
							c-0.5,1.1,0.2,2.5,1.4,2.7"/>
						<path class="st9" d="M318.8,242.3c0.1,0.4,0.2,0.7,0.2,1.1c0.9,0.2,1.8,0.2,2.6-0.2c0.4-0.8,0.1-1.9-0.6-2.4
							c-0.7-0.5-1.8-0.5-2.5,0.1c0.1,0.7,0.3,1.4,0.4,2.2"/>
					</g>
				</g>
				<g>
					<path class="st9" d="M189.7,262.5c3.6,2,8,1.6,12,1c52.2-7.1,99.9-32.5,146.2-57.7"/>
					<path class="st9" d="M197.2,291c2,0.5,4,0.3,6,0c55-6.3,110.1-21.9,155.5-53.7"/>
				</g>
			</g>
			<g>
				<path class="st9" d="M211.4,249.2c-0.3-2.2-3.3-3.5-5-2.1c-0.7,1-0.7,2.4,0,3.4c0.7,1,2,1.6,3.2,1.3c0.5-0.1,1-0.3,1.3-0.7
					C211.3,250.6,211.4,249.9,211.4,249.2z"/>
				<path class="st9" d="M234.9,240.8c-0.1,1.3,0.6,2.6,1.8,3.3c1.1,0.6,2.7,0.6,3.7-0.2c0.4-2.2-1.3-4.6-3.5-4.9
					c-0.3,0-0.7,0-1,0.1C235.2,239.3,234.9,240.1,234.9,240.8z"/>
				<path class="st9" d="M265.2,231.1c0.1,0.6,0.5,1.1,0.9,1.4c0.4,0.3,0.8,0.5,1.2,0.6c1.6,0.3,3.2-1,3.3-2.6
					c0.1-1.6-1.5-3-3.1-2.9C266,227.8,264.8,229.6,265.2,231.1z"/>
				<path class="st9" d="M296.2,218.3c0.9,1.1,2.9,1.1,3.8,0c0.9-1.1,0.8-2.9-0.3-3.9c-1-1-2.7-1.2-4-0.6c-0.3,1-0.3,2.1-0.1,3.1
					C295.7,217.4,295.9,217.9,296.2,218.3z"/>
				<path class="st9" d="M324.4,200.9c-0.4,1.2-0.2,2.6,0.6,3.5c0.9,0.9,2.5,1,3.4,0.1c0.9-0.9,0.7-2.7-0.3-3.5
					C327,200.1,325.5,200.2,324.4,200.9z"/>
			</g>
			<g>
				<path class="st10" d="M182.8,391c0.3,1.6,2.4,2.4,3.7,1.4c1.2-1,0.9-3.3-0.6-3.9C184.3,387.9,182.5,389.4,182.8,391z"/>
				<path class="st10" d="M213.4,389.7c0.4,0.8-0.3,1.7-0.3,2.6c-0.1,1.4,1.6,2.5,2.9,2c1.3-0.5,1.8-2.3,1.1-3.5
					C216.4,389.6,214.7,389.1,213.4,389.7z"/>
				<path class="st10" d="M245.9,398.9c0.5-0.6,0.7-1.5,0.5-2.2c-0.4-1.4-2.2-2.2-3.5-1.6c-1.3,0.7-1.7,2.6-0.8,3.8
					C242.9,400,244.9,400,245.9,398.9z"/>
				<path class="st10" d="M270.2,409.4c-0.5,1-0.3,2.2,0.4,3c0.7,0.8,1.9,1.1,3,0.8c1.7-0.6,2.4-3.1,1.2-4.5S271,407.8,270.2,409.4z
					"/>
				<path class="st10" d="M299.9,430.7c1.1-1.2,0.6-3.5-1-4.1c-1.5-0.6-3.4,0.8-3.4,2.4c0,1,0.7,2,1.6,2.3
					C298.1,431.7,299.3,431.4,299.9,430.7z"/>
			</g>
			<g>
				<path class="st11" d="M202.7,316c2.3,2,5.6,2.2,8.6,2.2c29.9-0.1,81.2-12.9,110.9-9.6"/>
				<g>
					<path class="st11" d="M184.1,240.4c27.4-2.1,53.5-12.3,78.9-22.8c26.1-10.7,52.4-22,74.4-39.6"/>
					<path class="st11" d="M183.8,238.3c3-6,6.1-12,9.1-18c0.5-0.9,1-1.9,1.9-2.4c1.3-0.8,3.1-0.4,4.6,0.1c9,3,17.3,7.7,24.5,13.9
						c2.1-8.5,5.3-16.7,9.7-24.3c0.4-0.7,0.8-1.4,1.5-1.9c1.4-0.9,3.2-0.5,4.8,0.1c8.6,2.9,17,6.6,25,10.9
						c1.9-8.2,4.7-16.3,8.4-23.9c0.6-1.2,1.2-2.4,2.2-3.1c1.4-0.9,3.3-0.8,5-0.6c10.7,1.2,21.4,2.7,32,4.6
						c2.1-9.1,4.3-18.2,6.4-27.3c5.1-0.2,10.3,0.4,15.2,1.8"/>
				</g>
				<g>
					<path class="st11" d="M162.7,409.1c15.1-7,35.8-7.1,51.9-2.8c33.6,9,67.6,25.2,86.9,55"/>
					<path class="st11" d="M171.3,379.7c3.5-0.5,6.9-1.1,10.4-1.6c16-2.5,32.4-4.9,48.4-2.3c7.8,1.3,15.4,3.8,22.9,6.4
						c10.6,3.7,21,7.7,30.9,13c15.3,8.1,28.9,19.2,40,32.5"/>
					<path class="st11" d="M174.8,371.2c6.9-7.6,15.2-13.7,24.5-18.1c4.1,7.2,9.1,13.9,14.7,20c0.5,0.5,1,1,1.7,1.2
						c0.7,0.1,1.4-0.3,2.1-0.7c9.3-5.7,18.6-11.3,28-17c2.7,8.5,5.4,17.1,8.1,25.6c9.7-4.6,19.3-9.4,28.9-14.2
						c4.7,9.1,7.7,19.1,8.7,29.2c8-5.3,16.3-10.1,24.8-14.4c6.1,13.4,9,28.4,8.3,43.1"/>
				</g>
			</g>
			<g>
				<g>
					<path class="st9" d="M199.3,343.7c3.4-6.8,7.4-13.5,11.7-19.7"/>
					<path class="st9" d="M216.7,342.8c3.3-6,6.8-11.9,10.6-17.6"/>
					<path class="st9" d="M233.4,343.4c3.4-5.5,6.8-11,10.2-16.5"/>
					<path class="st9" d="M252.3,346.1c3.3-6.1,7.3-11.8,11.7-17.2"/>
					<path class="st9" d="M271.4,349.9c2.9-6,6.7-11.6,11.2-16.5"/>
					<path class="st9" d="M287,355.9c3.7-5.4,7.4-10.8,11.1-16.2"/>
					<path class="st9" d="M300.7,365.3c0-0.3-0.4,0.1-0.2,0.3c0.2,0.1,0.5-0.1,0.7-0.3c4.1-5.6,8.5-10.9,13.2-16"/>
					<path class="st9" d="M315,374.4c2.9-5.1,6-10,9.3-14.9"/>
					<path class="st9" d="M326.5,383.2c2.6-5.5,6.1-10.5,10.4-14.8"/>
				</g>
				<g>
					<path class="st9" d="M187.3,345.7c31.9-4.9,65.7-3.2,94.9,10.6c6,2.8,11.7,6.1,17.5,9.4c14.1,8.1,28.5,16.4,39.7,28.2"/>
					<path class="st9" d="M198.4,325c0,0,80.3-14.9,151,44.8"/>
				</g>
			</g>
			<g>
				<path class="st5" d="M349.5,369.8c-19.8-15.7-30.9-41.7-28.6-66.9c2.3-25.2,18.1-48.7,40.5-60.5c0,0,19.4,55.9,19.2,64.1
					C380.4,314.9,385,319.1,349.5,369.8z"/>
				<path class="st5" d="M162.4,413.2c15-6.9,32.5-4.2,48.5-0.1c33.2,8.5,66.8,23.9,85.7,52.5c0,0-35.1,40.8-93.8,27.2
					C202.7,492.8,152.9,475,162.4,413.2z"/>
			</g>
		</g>
	</g>
</g>
<g>
	<path class="st12" d="M293,66.2c0,0-23.3-40.7-5.3-54.6C305.6-2.5,293,66.2,293,66.2z"/>
	<g>
		<g>
			<g>
				<path class="st3" d="M124,121.1c28.1-21.1,61.7-33.2,94.8-44.9c16.2-5.7,59.2-16.1,76.7-18.6c0,0-27.2,22.1-82.2,37.4L124,121.1
					z"/>
				<g class="st0">
					<g class="st1">
						<path class="st13" d="M240.1,261.6c-1.7,1.1-3.6,1.9-5.6,2.3c-9.4,2.1-18.7-3.9-20.8-13.3c-0.4-1.8-39-178.3-53.8-250.9
							C155.4-22.2,147-37.1,135-44.8c-14.1-8.9-29.7-5.2-29.8-5.1c-0.3,0.1-0.4,0.1-0.7,0.2c-45.8,9.8-33.2,74.5-32.6,77.3
							c1.9,9.4-4.1,18.7-13.6,20.6c-9.4,2-18.6-4.1-20.6-13.5C30.3-0.3,33.3-69.9,96.7-83.8c4.9-1.2,30.8-6.6,56.2,9.1
							c20.8,12.8,34.6,35.5,41.1,67.4c14.7,72.4,53.3,248.6,53.7,250.4C249.4,250.5,246.1,257.8,240.1,261.6z"/>
						<g>
							<defs>
								<path id="SVGID_3_" d="M240.1,261.6c-1.7,1.1-3.6,1.9-5.6,2.3c-9.4,2.1-18.7-3.9-20.8-13.3c-0.4-1.8-39-178.3-53.8-250.9
									C155.4-22.2,147-37.1,135-44.8c-14.1-8.9-29.7-5.2-29.8-5.1c-0.3,0.1-0.4,0.1-0.7,0.2c-45.8,9.8-33.2,74.5-32.6,77.3
									c1.9,9.4-4.1,18.7-13.6,20.6c-9.4,2-18.6-4.1-20.6-13.5C30.3-0.3,33.3-69.9,96.7-83.8c4.9-1.2,30.8-6.6,56.2,9.1
									c20.8,12.8,34.6,35.5,41.1,67.4c14.7,72.4,53.3,248.6,53.7,250.4C249.4,250.5,246.1,257.8,240.1,261.6z"/>
							</defs>
							<clipPath id="SVGID_1_">
								<use xlink:href="#SVGID_3_"  style="overflow:visible;"/>
							</clipPath>
							<g class="st14">
								
									<rect x="181.2" y="168.2" transform="matrix(0.722 -0.6919 0.6919 0.722 -68.1851 204.563)" class="st15" width="78.7" height="37.8"/>
								
									<rect x="207.8" y="231.5" transform="matrix(0.722 -0.6919 0.6919 0.722 -104.5427 240.5735)" class="st15" width="78.7" height="37.8"/>
								
									<rect x="161.3" y="94.4" transform="matrix(0.722 -0.6919 0.6919 0.722 -22.6554 170.298)" class="st15" width="78.7" height="37.8"/>
								
									<rect x="145.9" y="13.7" transform="matrix(0.722 -0.6919 0.6919 0.722 28.9515 137.1801)" class="st15" width="78.7" height="37.8"/>
								
									<rect x="125.2" y="-56.7" transform="matrix(0.722 -0.6919 0.6919 0.722 71.8583 103.3666)" class="st15" width="78.7" height="37.8"/>
								
									<rect x="16.9" y="-51.3" transform="matrix(-0.8164 -0.5774 0.5774 -0.8164 120.8936 -26.4363)" class="st15" width="78.7" height="37.8"/>
								
									<rect x="7.4" y="24.8" transform="matrix(-0.8164 -0.5774 0.5774 -0.8164 59.648 106.4076)" class="st15" width="78.7" height="37.8"/>
								<polygon class="st15" points="131,-121.7 126.1,-34.4 103,-39 79,-107.9 								"/>
							</g>
						</g>
					</g>
				</g>
				<g>
					<path class="st16" d="M176.1,217.4c7.8,29,16.5,61.3,24.3,90.2c0.9,3.2,1.7,6.6,1.4,9.9c-0.4,3.7-2.3,7-4.1,10.2
						c-4.4,7.8-8.6,15.7-12.8,23.6c-12.8,24.5-24.6,50.7-24.5,78.3c0.1,27.6,15.2,57,41.5,65.4c6,1.9,12.3,2.7,18.5,2.9
						c23.7,0.8,47.7-7.2,66.2-22c39.1-31.2,49.6-85.5,77.1-127.2c5.7-8.7,12.4-17.2,14.7-27.4c2.9-12.7-1.4-25.8-5.8-38.1
						c-12.2-34.3-28.1-91.2-50.1-133.2L176.1,217.4z"/>
					<path class="st5" d="M121.6,131.6c3.1,27,11.6,53.4,24.9,77.2c1.8,3.3,3.9,6.6,7,8.6c3.9,2.4,8.7,2.5,13.3,2.3
						c58.7-2.7,111.8-34.7,159-69.6c2.9-2.1,5.8-4.4,7.2-7.7c1.7-3.9,0.8-8.3-0.2-12.4c-5.5-24-12.2-48.7-28-67.5
						c-1.7-2-3.6-4-6.1-4.6c-3.8-1-7.5,1.4-10.7,3.6c-45.6,30.7-101.7,40.3-154.4,55.8c-4.9,1.4-10.4,3.6-11.9,8.4
						C121.2,127.5,121.4,129.6,121.6,131.6z"/>
				</g>
			</g>
			<g>
				<path class="st5" d="M348.3,372.4c-19.8-15.7-30.9-41.6-28.5-66.7s18-48.6,40.4-60.3c0,0,19.3,55.8,19.2,64
					C379.2,317.6,383.8,321.8,348.3,372.4z"/>
				<path class="st5" d="M161.7,415.7c14.9-6.8,32.4-4.2,48.3-0.1c33.1,8.5,66.6,23.9,85.5,52.4c0,0-35,40.7-93.6,27.1
					C201.9,495.1,152.3,477.3,161.7,415.7z"/>
			</g>
		</g>
	</g>
</g>
</svg>
